<?xml version="1.0" encoding="UTF-8" standalone="no"?>
<!DOCTYPE svg PUBLIC "-//W3C//DTD SVG 1.1//EN" "http://www.w3.org/Graphics/SVG/1.1/DTD/svg11.dtd">
<svg width="100%" height="100%" viewBox="0 0 1504 359" version="1.1" xmlns="http://www.w3.org/2000/svg" xmlns:xlink="http://www.w3.org/1999/xlink" xml:space="preserve" xmlns:serif="http://www.serif.com/" style="fill-rule:evenodd;clip-rule:evenodd;stroke-linejoin:round;stroke-miterlimit:2;">
    <g transform="matrix(1,0,0,1,-109,-261)">
        <g transform="matrix(1,0,0,1,51.3824,0)">
            <g id="S">
                <path d="M172.22,294.013L160.597,316.144C160.597,316.144 138.851,298.491 106.303,324.684C94.293,334.35 99.899,359.922 107.331,368.332C128.316,392.081 148.336,407.931 162.324,421.507C186.337,444.811 195.16,456.092 205.579,471.909C216.496,488.485 221.188,503.92 219.556,519.684C216.865,545.67 198.601,560.067 179.752,568.825C124.395,594.55 70.288,508.34 70.288,508.34L95.943,493.026C95.943,493.026 112.431,519.844 123.297,530.982C134.393,542.357 155.223,551.786 167.111,549.179C186.808,544.859 197.154,525.977 196.132,515.58C192.315,476.728 165.217,457.049 152.986,442.645C136.389,423.099 112.503,407.158 99.86,391.116C89.508,377.982 78.616,364.289 77.126,346.393C75.951,332.27 86.253,316.088 97.524,306.116C108.894,296.057 127.25,285.892 145.345,286.037C160.426,286.158 172.22,294.013 172.22,294.013Z" style="fill:white;"/>
            </g>
        </g>
        <g transform="matrix(1,0,0,1,37.8097,0)">
            <g id="P">
                <path d="M251.447,291.983L244.979,569.391L274.499,569.583C274.499,569.583 274.044,518.411 274.107,491.294C274.154,471.015 286.99,451.127 300.452,435.962C318.993,415.077 374.196,388.648 388.433,366.859C399.68,349.644 398.532,318.238 385.873,305.223C373.213,292.209 349.406,287.739 312.475,288.771C285.096,289.536 251.447,291.983 251.447,291.983ZM273.518,444.032L275.839,312.513C275.839,312.513 314.421,309.844 330.271,310.517C341.404,310.989 364.554,309.599 373.384,325.589C379.176,336.076 373.398,353.435 364.685,363.701C353.905,376.403 326.511,396.149 312.798,405.091C288.568,420.891 273.518,444.032 273.518,444.032Z" style="fill:white;"/>
            </g>
        </g>
        <g transform="matrix(1,0,0,1,20.3591,0)">
            <g id="E">
                <path d="M429.762,292.762C429.859,292.028 426.748,572.26 426.748,572.26L543.748,572.259L539.101,545.079L452.832,549.581L450.533,372.29L575.762,369.6L573.955,345.261L450.422,353.192L450.291,312.608L533.629,311.778L534.119,286.751C534.119,286.751 429.664,293.497 429.762,292.762Z" style="fill:white;"/>
            </g>
        </g>
        <g id="A">
            <path d="M580.192,571.974L669.348,258.982L740.255,574.387L713.829,575.038L707.229,538.771L614.67,536.49L605.823,573.655L580.192,571.974ZM627.064,489.603C621.672,493.195 616.528,519.139 619.102,520.789C621.885,522.572 699.2,523.103 703.111,520.009C705.794,517.887 700.302,491.998 697.481,489.489C695.507,487.735 631.272,486.8 627.064,489.603ZM629.414,471.804L692.567,472.636L668.127,330.589L629.414,471.804Z" style="fill:white;"/>
        </g>
        <g transform="matrix(1,0,0,1,-12.6032,0)">
            <g id="R">
                <path d="M833.048,411.541C810.506,412.438 791.101,411.834 791.101,411.834L793.447,571.868L766.22,571.868L771.793,286.311C771.793,286.311 850.495,282.939 876.148,289.342C913.262,298.607 917.7,321.188 918.283,341.055C918.936,363.313 917.285,386.048 897.363,400.202C889.549,405.753 871.81,408.748 853.021,410.334C858.081,427.867 876.948,493.031 883.726,510.231C888.965,523.523 907.213,582.134 920.826,579.489C933.991,576.931 942.722,542.098 942.722,542.098L955.58,573.334C955.58,573.334 936.652,601.429 924.004,603.637C914.757,605.251 902.026,596.049 896.045,585.065C885.12,565.004 863.696,520.742 833.048,411.541ZM793.642,309.332L791.492,392.086C791.492,392.086 858.857,394.76 876.933,387.297C897.137,378.957 901.748,363.54 901.91,347.803C902.125,326.824 886.322,315.227 867.207,309.971C848.742,304.894 793.642,309.332 793.642,309.332Z" style="fill:white;"/>
            </g>
        </g>
        <g transform="matrix(1,0,0,1,-36.8402,0)">
            <g id="W">
                <path d="M1063.6,458.828L1035.29,573.516L1016.52,574.297L956.171,286.362L979.7,287.534L1026.91,528.224L1051.08,430.334L1016.39,290.925L1043.73,291.283L1065.09,390.359L1089.77,290.73L1113.56,289.948L1075.57,427.574L1099.26,530.99L1143.6,286.753L1168.7,286.688L1106.85,573.125L1086.52,572.735L1063.6,458.828Z" style="fill:white;"/>
            </g>
        </g>
        <g id="O">
            <g transform="matrix(1,0,0,1,-61.0772,0)">
                <path d="M1274.72,288.489C1201.24,289.19 1200.19,333.396 1202.02,358.254C1206.83,423.509 1242.65,437.427 1269.48,434.899C1354.36,426.899 1348.35,376.553 1349.05,355.813C1349.89,330.901 1345.96,287.808 1274.72,288.489ZM1274.56,311.332C1226.9,311.185 1220.67,343.215 1221.15,360.374C1222.34,403.072 1256.4,413.458 1271.83,413.329C1318.48,412.937 1325.52,376.246 1325.72,359.692C1325.91,343.444 1332.68,312.782 1277.73,311.377C1276.7,311.351 1275.64,311.336 1274.56,311.332Z" style="fill:white;"/>
            </g>
            <g transform="matrix(1,0,0,1,-61.0772,0)">
                <path d="M1226.73,478.821L1227.58,511.342L1319.8,514.86L1318.36,477.516L1226.73,478.821Z" style="fill:white;"/>
            </g>
        </g>
        <g transform="matrix(1,0,0,1,-79.4973,0)">
            <g id="L">
                <path d="M1389.44,288.17L1387.74,571.542L1497.62,570.891L1499.58,538.888L1412.18,545.732L1417.27,285.3L1389.44,288.17Z" style="fill:white;"/>
            </g>
        </g>
        <g transform="matrix(1,0,0,1,-95.9785,0)">
            <g id="F">
                <path d="M1544.49,287.964C1544.49,287.964 1541.1,574.141 1540.78,572.901C1540.45,571.662 1573.56,571.86 1573.56,571.86L1572.78,387.29L1692.24,387.224L1689.43,359.592L1572.06,361.154L1572.25,312.206L1638.99,314.36L1635.6,286.922L1544.49,287.964Z" style="fill:white;"/>
            </g>
        </g>
    </g>
</svg>
