<?xml version="1.0" encoding="UTF-8" standalone="no"?>
<!-- Created with Inkscape (http://www.inkscape.org/) -->

<svg
   width="2401.3477"
   height="610.59961"
   viewBox="0 0 2401.3477 610.5996"
   version="1.1"
   id="svg1"
   xml:space="preserve"
   inkscape:version="1.4.2 (ebf0e940d0, 2025-05-08)"
   sodipodi:docname="twopoint5d-logo-next.svg"
   inkscape:export-filename="twopoint5d-logo.png"
   inkscape:export-xdpi="96"
   inkscape:export-ydpi="96"
   xmlns:inkscape="http://www.inkscape.org/namespaces/inkscape"
   xmlns:sodipodi="http://sodipodi.sourceforge.net/DTD/sodipodi-0.dtd"
   xmlns="http://www.w3.org/2000/svg"
   xmlns:svg="http://www.w3.org/2000/svg"><sodipodi:namedview
     id="namedview1"
     pagecolor="#505050"
     bordercolor="#eeeeee"
     borderopacity="1"
     inkscape:showpageshadow="0"
     inkscape:pageopacity="0"
     inkscape:pagecheckerboard="0"
     inkscape:deskcolor="#505050"
     inkscape:document-units="px"
     inkscape:zoom="0.41342527"
     inkscape:cx="1141.6816"
     inkscape:cy="521.25503"
     inkscape:window-width="2560"
     inkscape:window-height="1372"
     inkscape:window-x="0"
     inkscape:window-y="0"
     inkscape:window-maximized="1"
     inkscape:current-layer="svg1" /><defs
     id="defs1" /><g
     inkscape:label="container"
     inkscape:groupmode="layer"
     id="layer1"
     transform="translate(-539.0823,-779.06055)"
     style="display:inline"><path
       id="path10"
       style="display:inline;fill:#000000;stroke-width:1.00157"
       d="m 1638.5273,-25.228516 -65.4218,91.933594 -133.4082,8.978516 -9.4063,16.675781 4.2754,24.800785 16.2481,13.25586 94.9257,8.97851 -25.6562,45.32422 -58.1524,-3.84766 -60.291,37.19922 -0.4258,-58.57812 -83.8086,27.36523 -19.6699,14.96485 -2.5644,-9.40625 -42.7598,-5.5586 115.4492,-70.98047 0.4278,-8.125 -174.8848,-67.558591 -13.2539,11.117188 -21.8086,141.533203 -34.6348,-14.9668 -78.248,4.27735 -47.89064,30.35742 -15.82031,-5.13086 -79.10547,-6.8418 -81.24219,15.39453 -10.68945,21.37891 -13.68164,-40.62109 -38.48438,-29.07618 -67.55859,-21.3789 -56.86914,-12.40039 -96.63672,20.52344 -60.7168,33.78124 -35.0625,64.13868 -9.83398,-45.75391 -56.01563,26.08399 -54.30273,41.47656 42.75781,-97.91797 -5.55859,-7.26953 -30.78711,4.27539 2.04687,-7.16211 9.83594,-19.67383 -4.83789,-9.07031 -170.52539,15.72265 74.37695,-101.589839 -26.00195,-21.166016 -42.32813,3.023437 -14.51367,12.699219 -0.0586,0.832031 -68.726564,107.570318 -80.3867191,3.42187 -36.3457029,59.86133 1.283203,19.24219 77.394531,-6.41407 -58.1523436,149.65625 -1.7109374,63.71289 26.082031,52.5918 20.953125,17.10352 78.248047,-5.98438 63.2832,-53.02148 3.42188,21.3789 88.08398,10.26172 8.97852,-4.27539 16.24805,-37.62891 43.1875,-67.55859 8.97851,152.22266 12.82813,5.98633 129.98828,-123.14649 21.3789,15.39258 48.31836,22.23633 92.78711,-5.98633 79.53125,-43.61523 -59.00781,158.63671 48.74609,17.10352 66.70313,9.83398 19.66992,-5.13086 19.24023,-126.99414 79.10547,-5.98632 41.47657,-11.11719 59.86129,-27.79297 9.4082,10.68945 65.42,6.41406 39.7675,-2.99414 35.0625,-19.24023 -4.705,14.96484 30.7871,7.26953 95.3535,6.41407 22.2344,-22.23633 2.1367,22.66211 27.3672,-5.13086 104.332,-16.67578 4.7031,81.66992 43.1875,51.31055 37.627,-0.42774 31.2148,-40.19336 24.7989,-44.46875 108.1816,-8.97851 44.041,47.0332 78.25,28.22266 135.5449,-4.70508 78.25,-29.92969 48.7442,30.35742 94.9258,0.42774 42.7597,-23.08985 0.8555,20.09766 9.4062,2.99219 153.0782,-58.15235 1.709,-14.53711 -100.9102,-218.5 -14.5391,-82.0957 14.5391,-43.1875 -19.6699,-38.482421 -72.6895,-12.828125 -43.1875,33.779297 31.2149,-42.759765 6.8398,-12.398438 -168.4707,-18.814453 -149.6562,-2.566406 -29.9317,10.689453 -60.289,84.236328 -2.5665,-17.53125 -7.2675,-14.966797 -98.3477,7.269531 54.7324,-94.496093 -2.9922,-8.980469 z m 472.0586,120.582032 -5.5586,28.648434 51.7383,-15.82226 18.3867,121.43554 -14.1093,-10.26171 -59.4356,-2.13672 -46.6074,21.80664 -8.5527,-14.11133 -10.2618,-26.08203 14.5391,-50.45703 z m -383.1211,59.005864 -31.6406,79.10546 7.6953,28.22071 49.6016,-8.98047 59.4355,-11.11719 40.6211,29.50391 c 0,0 22.6621,46.18073 22.6621,49.17382 0,2.99321 -7.6976,29.0758 -8.9804,33.7793 -1.2828,4.7035 -16.6758,38.05469 -16.6758,38.05469 l -66.2754,-0.85352 -24.8008,-9.83593 -0.4277,-27.79297 14.1094,-41.47657 -79.1036,15.39454 -7.2695,-31.64258 -17.5312,-50.88281 -53.4473,-44.47071 c 0,0 14.11,-38.90892 16.248,-41.04687 z m -1579.61128,5.83398 -0.17774,2.48437 -1.86719,0.23438 z m 114.6875,37.35352 -21.80664,66.27734 -40.19532,17.10351 -64.56445,13.68165 -21.80859,-16.67579 20.52539,-57.72461 z m 352.33398,38.91015 31.21484,8.125 22.23438,17.10352 -0.85547,44.04101 -45.32422,28.64844 -31.64258,-14.96484 -27.36523,-40.19336 18.38672,-32.07032 z m 858.1738,18.38672 -4.2754,27.79297 -24.8007,75.68359 -21.3789,-38.48242 c 0,0 -2.1387,-40.62184 -2.1387,-42.75977 l 20.0976,-15.39257 z m -376.2793,29.07617 13.2559,3.42188 4.2754,15.82031 -8.125,12.40039 -17.5313,5.13086 -11.5449,-14.53906 5.5586,-12.82813 z m -204.81638,11.11719 4.70313,11.11719 -20.0957,44.4707 -17.10352,9.83398 -7.69726,-4.70312 23.08984,-53.87695 z m 1296.45508,15.39258 12.4004,21.38086 -4.7051,17.95898 c 0,0 -19.241,8.55142 -21.8066,10.26172 -2.5655,1.7104 -18.8125,-5.13086 -18.8125,-5.13086 l -4.2774,-22.66211 13.6836,-12.40039 z"
       transform="translate(568.58622,804.28907)"
       inkscape:label="outline-back" /><path
       id="path1"
       style="display:inline;opacity:1;fill:#808080;stroke:none;stroke-width:6;stroke-linecap:round;stroke-linejoin:round;stroke-dasharray:none;stroke-opacity:1"
       inkscape:label="twopoint5d"
       d="m 2241.9762,804.34135 c -12.8031,-0.42459 -30.5578,1.74223 -35.041,6.31445 -2.7356,2.79 -23.2035,36.62308 -49.2481,84.88477 -67.6225,3.12609 -132.4987,7.22822 -135.1152,10.00781 -5.3287,5.66073 6.4027,15.93533 13.5566,18.97852 3.7905,1.61243 50.2667,4.90189 102.0782,7.90039 -12.2197,23.66466 -24.9131,49.44315 -37.2129,75.87501 -10.039,-0.7955 -20.8497,-0.7935 -32.6133,0.1269 -41.5208,3.249 -89.9572,30.6511 -112.0234,46.2364 -2.4281,1.7149 -1.4474,-54.0787 -4.2754,-56.93558 -2.5199,-2.5456 -69.9375,10.64158 -73.2032,16.26758 -1.6665,2.8709 5.2022,186.5621 7.2774,190.2031 3.6491,6.4024 103.9353,-12.1198 106.6035,-16.248 2.4092,-3.7277 -27.4306,-28.9119 -29.834,-103.4629 -0.7438,-23.0726 84.2773,-57.4501 119.2949,-35.2461 0.1181,0.075 0.2261,0.1572 0.3438,0.2324 -23.6511,54.8194 -43.4453,109.8165 -50.7109,153.7246 -18.9611,114.5863 61.3905,105.2648 63.2695,104.4629 37.6618,-16.0737 39.9471,-107.8436 40.1035,-119.8574 0.1129,-8.6681 -35.2529,13.3565 -36.7402,-19.2695 -1.2738,-27.9429 4.7577,-58.9436 15.0214,-90.6953 13.4359,17.3054 22.2444,37.4919 28.3594,58.1621 9.4894,32.0763 -4.8101,97.8865 -2.7109,100.3144 4.8571,5.6177 116.4391,-7.5246 118.8652,-10.4082 3.4411,-4.09 -14.9086,-120.9836 -56.789,-165.9668 -18.3454,-19.7043 -37.9768,-35.2195 -63.2149,-44.0625 12.9261,-28.13408 27.6922,-55.72089 42.3477,-81.15038 54.5733,2.80351 104.7348,4.72419 107.9062,3.35352 11.7817,-5.09209 31.0425,-40.24814 24.4024,-46.0918 -1.9216,-1.69111 -50.9088,-0.61816 -107.8028,1.5625 28.4786,-46.25923 51.378,-79.46354 50.8672,-85.60937 -0.1796,-2.16092 -6.0799,-3.34877 -13.7617,-3.60352 z m 207.1738,36.0957 c -27.6782,-0.10863 -47.082,0.69508 -49.7168,2.75391 -7.6172,5.95208 -121.9038,188.05854 -108.4492,195.20704 4.1797,2.2207 94.6965,-34.445 131.9121,-5.7344 45.6443,35.2129 96.9882,96.1311 44.9024,167.4922 -48.5018,66.4505 -161.2498,25.2009 -169.9707,-8.2539 -5.0792,-19.4848 13.0631,-43.3399 8.5468,-43.7852 -5.0923,-0.5021 -42.7968,9.4436 -44.5507,17.3028 -2.2519,10.091 6.9182,58.682 15.1582,71.0176 14.2943,21.3993 79.6456,69.1576 152.2734,64.9492 55.7058,-3.2278 123.7994,-25.7199 169.5781,-63.961 19.2709,36.5536 59.6927,52.6335 101.5449,50.4043 75.7959,-4.0371 87.0202,-36.0669 92.4727,-32.2617 2.8846,2.013 -2.9453,21.068 1.8359,21.377 9.9663,0.6441 104.3333,-11.6901 98.1875,-27.0723 -67.6636,-169.3547 -102.3444,-284.52087 -92.1816,-355.16992 0.9048,-6.29025 -24.9652,-8.43362 -40.9316,-8.75195 -9.5799,-0.19099 -17.3853,0.78179 -18.7149,3.33007 -3.7551,7.19678 45.8707,195.3522 40.668,192.4961 -28.8642,-15.8452 -69.0894,-51.8221 -137.5723,-22.9727 -9.4041,3.9617 -17.7184,10.1587 -24.9492,17.9219 -23.7905,-27.4399 -57.3609,-50.8505 -85.9941,-67.8379 -49.086,-29.12125 -166.5614,-21.24901 -169.0118,-27.42575 -1.517,-3.82392 23.6736,-44.30115 28.9063,-47.2793 5.3692,-3.05584 50.194,0.475 99.6699,12.61914 49.476,12.14413 97.5554,45.36217 103.3399,41.52539 3.7242,-2.47027 4.3807,-44.00549 12.0937,-55.66602 5.6449,-8.53396 86.7226,-68.13378 84.0469,-75.91601 -2.5621,-7.45174 -160.059,-15.9827 -243.0938,-16.3086 z m -1676.47654,2.25782 c -9.19221,-0.23644 -20.2089,3.61855 -28.44336,6.5957 -7.81778,2.8265 -51.0385,71.57396 -80.01171,127.33008 -46.25447,4.92418 -82.51533,9.09364 -84.01758,10.26367 -11.06873,8.62083 -12.98327,33.22588 -10.84375,40.66798 0.65594,2.2817 32.24777,-2.3225 74.94922,-9.6074 -28.22063,62.0508 -73.97164,171.4314 -64.10547,206.8496 10.71268,38.4571 35.10482,56.9348 74.55859,56.9355 39.45377,7e-4 70.9421,-33.6023 90.82617,-60.3242 19.88407,-26.7217 50.96846,-103.0308 46.0918,-109.8047 -3.45522,-4.7994 -58.7913,10.672 -79.98242,14.2344 -12.95994,2.1786 -44.06776,1.7545 -54.90235,-19.6563 -4.16338,-8.2274 9.29221,-49.0736 30.19922,-95.7675 86.96208,-15.58872 190.54237,-35.75328 193.47852,-35.7266 13.55554,0.12316 19.89117,-21.41724 12.87695,-21.01367 -2.25001,0.12945 -101.79,9.74622 -188.18359,18.6582 2.86222,-5.66332 5.70244,-11.34387 8.68554,-16.93164 25.45785,-47.68615 73.87545,-104.876 72.4043,-106.78515 -3.20674,-4.16147 -8.06475,-5.7761 -13.58008,-5.91797 z m 993.22854,32.25195 c -1.1634,-0.0396 -1.9215,0.0888 -2.2149,0.40625 -4.8718,5.27025 -19.2518,110.59246 -15.8847,114.00977 5.1685,5.24562 143.6928,-60.43397 144.0058,-69.58399 0.1992,-5.82546 -108.4555,-44.2377 -125.9062,-44.83203 z m -560.9688,83.29688 c -53.5027,0.41814 -110.7347,13.42017 -139.4238,39.48632 -40.9832,37.23628 -53.9527,88.78878 -42.1406,133.04298 -17.8778,12.9369 -36.24445,26.2336 -50.03909,35.0527 0,0 21.95837,-139.6942 13.55469,-136.916 -51.41574,16.9978 -113.19336,74.5586 -113.19336,74.5586 0,0 51.59982,-117.14361 49.02149,-121.67382 -4.81802,-8.46539 -60.5359,4.88487 -67.7793,10.8457 -5.92121,4.87277 -90.02436,247.75242 -89.01172,257.23442 0.8896,8.3298 64.84516,10.9709 67.7793,4.7441 39.42915,-83.6755 96.92578,-126.75 96.92578,-126.75 0,0 -4.07003,165.5622 4.74609,168.0957 7.19672,2.0682 59.46833,-59.1961 117.11912,-112.9336 29.7076,32.1313 76.0064,50.5848 126.8906,45.1523 64.0068,-6.8333 174.0668,-75.4109 187.0743,-132.8496 13.0075,-57.4387 -10.2507,-90.0616 -65.0703,-119.29293 -20.5573,-10.96178 -51.9807,-16.90803 -85.8125,-17.71289 -3.5242,-0.0838 -7.0738,-0.11186 -10.6407,-0.084 z m 463.6153,44.2852 c -28.3003,-0.5226 -60.4779,9.6632 -85.0411,25.7988 23.6292,8.8526 42.6443,24.5366 47.211,51.7578 9.4553,-6.7842 22.4268,-11.1597 33.7656,-10.9492 1.2437,0.023 2.4671,0.1005 3.6641,0.2363 19.1533,2.1741 44.8162,17.5718 41.539,34.4727 -3.2771,16.9008 -14.8865,43.7985 -41.539,42.7832 -26.6521,-1.0153 -30.4737,-5.5896 -40.2461,-14.1192 -0.8542,-0.7456 -1.6167,-1.5594 -2.3906,-2.3652 -7.3663,24.0191 -18.3593,42.7131 -31.5625,57.3848 16.0837,10.9229 36.0588,17.1373 84.2988,18.9648 70.5396,2.6724 94.9251,-68.1253 92.1816,-113.8711 -2.7435,-45.7456 -41.4898,-83.7483 -92.1816,-89.4707 -3.1681,-0.3576 -6.4075,-0.5622 -9.6992,-0.623 z m 107.666,2.4257 c -17.9693,0.1195 -31.8203,1.2607 -31.377,4.2246 2.0924,13.9887 40.9863,62.556 37.3535,96.6875 -4.6156,43.3651 -30.8252,95.0385 -26.5078,98.5215 6.2318,5.0274 89.1477,7.5058 96.3946,3.5879 1.7774,-0.9609 -5.8418,-54.3331 -4.8399,-106.8125 0.8623,-45.1716 10.9316,-90.4657 6.0488,-91.9844 -5.7325,-1.7829 -47.1234,-4.4237 -77.0722,-4.2246 z m -574.1309,6.1914 c 15.402,0.3759 29.7076,3.1517 39.0664,8.2715 24.9567,13.6527 48.7616,32.957 42.1621,80.4571 -3.7806,27.2112 -54.4961,75.5238 -84.8261,76.9609 -50.7721,2.4058 -78.4038,-50.5427 -90.0352,-73.1856 -11.6315,-22.6427 3.026,-53.324 25.3164,-74.1015 13.9315,-12.9859 42.6464,-19.0289 68.3164,-18.4024 z m 283.041,15.5899 c -48.566,0.6442 -92.9498,7.7998 -94.9453,15.7285 -11.0154,43.7668 -120.6484,306.3691 -120.6484,306.3691 0,0 74.5159,14.7022 79.9805,9.4883 5.4645,-5.2139 8.1814,-71.5671 27.789,-124.7148 5.2346,-14.1888 190.9424,34.0918 233.8438,-107.7715 24.5465,-81.1691 -49.0821,-97.4369 -105.0606,-98.9609 -6.9973,-0.1905 -14.021,-0.2307 -20.959,-0.1387 z m -23.3457,50.8164 c 5.2959,-0.052 10.3862,0.532 14.4825,2.1914 13.108,5.3103 18.3443,11.1009 17.623,32.5352 -0.7212,21.4342 -27.936,56.5374 -52.8691,69.1367 -24.9333,12.5993 -53.0879,15.1321 -55.5801,6.0996 -2.7544,-9.9827 34.7154,-101.4092 46.7676,-105.0606 5.2742,-1.5979 17.9251,-4.7887 29.5761,-4.9023 z m 1292.0352,28.9355 c 10.1028,0.1484 19.5297,3.8707 25.4844,14.0293 14.6576,25.0057 -3.4384,48.7071 -21.6817,56.4004 -18.2432,7.6934 -51.715,-1.2597 -58.959,-15.9922 -7.2439,-14.7325 0.2254,-30.8438 15.2559,-41.1308 8.9243,-6.1079 25.1347,-13.5236 39.9004,-13.3067 z" /><g
       id="g2"
       inkscape:label="lowpoly"
       style="fill:#e6e6e6"><path
         id="path9"
         style="display:inline;fill:#e6e6e6;stroke-width:1.00157"
         inkscape:label="5d"
         d="m 2500.4397,840.63477 -101.7656,2.13672 c 0,0 -94.9263,158.63751 -96.209,160.77541 -1.2828,2.138 -14.1093,33.3515 -14.1093,33.3515 l 4.2753,2.9922 59.0079,-16.6757 52.5937,-1.2833 34.6348,21.8086 34.6347,41.4766 17.5313,47.4609 -9.4082,44.043 -32.0684,44.041 -54.3047,15.8203 c 0,0 -44.0412,-2.9927 -44.8964,-4.7031 -0.8552,-1.7103 -44.0411,-24.3711 -44.0411,-24.3711 0,0 -11.5467,-23.9462 -11.1191,-26.5117 0.4276,-2.5656 13.6836,-34.207 13.6836,-34.207 l -47.4629,17.1035 8.5527,58.1523 9.4063,17.1035 46.6074,36.7735 58.1523,22.6621 76.9668,-0.4277 67.5586,-17.959 50.8829,-26.9375 19.6699,-19.2422 7.2695,14.9648 32.4961,26.5117 43.1875,11.9727 52.5937,-3.8496 33.7793,-10.2617 26.9375,-20.9512 -2.5644,25.2266 55.5859,-7.6953 40.6211,-12.4004 4.2754,-7.6973 -75.6836,-210.8008 -19.2402,-97.49217 2.9922,-49.59961 -18.8145,-4.27539 -41.0469,-0.85547 -2.9941,3.84766 45.752,193.27148 -31.2129,-20.0977 -49.1739,-16.248 -39.7656,2.1387 -40.1933,20.0957 -6.4141,8.125 c 0,0 -31.6414,-36.7737 -33.7793,-37.6289 -2.138,-0.8552 -67.5606,-41.04886 -67.5606,-41.04886 l -32.9238,-7.26758 -117.1601,-8.125 -4.7032,-5.55859 31.6426,-47.03516 114.5938,17.95899 83.3789,37.6289 h 5.5586 l 9.4082,-56.44336 85.0898,-69.26953 -0.8555,-6.8418 z m 244.5821,264.25003 23.5175,2.5664 15.8204,22.2344 -2.5645,30.3593 -33.7812,21.3789 -32.9239,-4.7031 -20.0957,-21.8066 5.9864,-22.2364 23.9433,-19.6679 z" /><path
         style="display:inline;fill:#e6e6e6;stroke-width:1.00157"
         d="m 1878.7233,1014.6636 c -0.8551,2.9931 6.8415,190.2777 6.8415,190.2777 l 6.4138,0.8552 55.5868,-6.8414 46.6074,-9.8346 -21.8072,-41.9039 -10.2621,-68.4145 22.2347,-20.0967 53.8764,-17.1036 44.4694,7.6966 -35.9176,94.0699 -18.3864,96.2079 8.9794,39.3383 26.9382,26.083 29.9313,3.8483 22.6623,-21.3795 13.6829,-45.3246 5.1311,-57.7247 -20.9519,3.4207 -16.2485,-10.6898 v -36.7727 l 15.8209,-64.5662 18.814,35.0624 13.2553,41.0487 -1.7104,34.6348 -5.1311,49.6005 9.8346,2.138 109.4631,-12.4001 -14.1104,-82.0974 -24.8003,-62.0006 -37.2004,-39.7659 -47.0349,-26.0831 45.7522,-84.66287 103.0493,6.84145 8.1242,-5.13108 23.0899,-35.49001 -4.7035,-6.84145 -107.7528,1.71036 53.0212,-85.0905 -5.9863,-2.13795 -43.1866,5.55868 -49.6005,85.51809 -134.691,8.9794 -2.5655,6.84144 18.814,14.96567 101.3389,4.2759 -39.3383,79.10427 -27.3658,-1.7104 -39.3383,7.269 -44.0419,17.9588 -34.6348,21.3796 -3.4207,-58.15234 -66.7041,14.11054 z"
         id="path8"
         inkscape:label="nt" /><path
         style="display:inline;fill:#e6e6e6;stroke-width:1.00157"
         d="m 1763.7015,873.98631 -16.676,106.04243 1.7103,9.40699 76.5387,-29.50374 67.1317,-40.1935 -2.9931,-2.13795 z"
         id="path7"
         inkscape:label="ii" /><path
         style="display:inline;fill:#e6e6e6;stroke-width:1.00157"
         d="m 1744.0323,1009.5325 c 0,2.1379 27.7934,51.3108 27.7934,51.3108 l 10.2622,28.6486 -1.2828,30.3589 -14.5381,51.7385 -11.5449,32.0693 3.8483,2.1379 58.5799,4.7035 34.2072,-2.5655 v -4.2759 l -5.131,-89.794 8.9794,-101.7666 -10.2622,-5.1311 -89.794,-2.1379 z"
         id="path6"
         inkscape:label="i" /><path
         style="display:inline;fill:#e6e6e6;stroke-width:1.00157"
         d="m 1582.8307,1027.9189 34.2073,21.3795 7.269,9.8346 5.9863,22.2347 17.9588,-11.9725 26.9382,-1.2828 23.5175,12.4001 10.2621,17.1036 -8.5518,33.3521 -24.8002,14.5381 -26.9382,0.4275 -14.9657,-7.6966 -8.9794,-10.2622 -14.5381,40.1935 -17.9588,20.5244 43.6143,14.9656 65.8489,2.5656 38.4831,-19.6692 26.083,-46.6073 5.1311,-59.8627 -21.8071,-41.0487 -50.4557,-32.0693 -37.6279,-4.7035 -52.166,8.9794 z"
         id="path5"
         inkscape:label="o" /><path
         id="path4"
         style="display:inline;fill:#e6e6e6;stroke-width:1.00157"
         inkscape:label="p"
         d="m 1453.2718,1026.209 -62.8575,15.3926 -11.9726,36.7734 -108.6074,270.2363 76.539,11.545 5.9864,-4.7032 23.9453,-122.291 9.4062,-3.8476 68.4141,1.7089 61.5742,-10.6894 50.8828,-26.5098 29.5039,-33.3515 19.6699,-50.0293 -2.5664,-38.4825 -15.8203,-21.3789 -55.5879,-21.3808 z m -5.9864,50.8828 29.502,0.4277 17.959,17.959 -2.9922,31.2129 -35.4902,47.0352 -38.9102,17.959 -27.3672,2.1386 -5.9863,-7.2695 17.1055,-50.0273 29.0761,-54.7325 z" /><path
         id="path3"
         style="display:inline;fill:#e6e6e6;stroke-width:1.00157"
         inkscape:label="wo"
         d="m 1205.2679,956.08399 -110.3184,22.66211 -40.6211,28.2207 -26.9375,46.6074 -8.125,44.8965 5.1309,33.7793 -53.87503,35.4902 20.52343,-126.9941 -2.56445,-14.5371 -53.02148,28.2207 -64.56641,52.166 50.88281,-120.15233 -0.42773,-8.125 -49.59961,6.41406 -15.39453,8.97852 -49.59961,132.55465 -40.19336,122.7168 5.13086,3.4219 38.48242,5.1309 23.08984,-2.5664 21.38086,-41.9024 50.45508,-65.4219 28.22071,-22.6621 -3.41993,114.166 4.27539,53.0215 3.41993,2.5645 115.87691,-114.166 22.6641,21.3789 48.3164,21.3808 55.5879,4.2754 86.8008,-32.0683 71.4062,-53.4493 29.0762,-43.6152 2.5664,-55.1582 -21.3789,-34.207 -53.877,-37.62893 z m -3.8477,53.44921 49.5996,13.2539 34.6348,45.752 -4.7031,40.6211 -24.7989,35.9179 -50.0293,31.6426 -29.0761,-0.4277 -42.3321,-29.0762 -29.9297,-52.166 0.8536,-27.3652 27.3671,-39.7676 20.5235,-11.5449 z" /><path
         style="fill:#e6e6e6;stroke-width:1.00157"
         d="m 741.53162,852.0607 -48.37633,74.37862 -29.0258,53.21397 -84.05389,8.46586 -12.69879,26.00225 3.62823,12.6988 76.79743,-10.8847 -37.49166,87.6822 -26.00228,80.4256 -4.23293,35.6776 14.5129,33.8634 36.28225,24.7929 41.72459,-0.6047 45.35282,-27.2117 35.07284,-43.5387 29.63051,-64.0987 7.86116,-25.3975 -1.20941,-4.8377 -49.58575,10.28 -41.72459,7.2564 -36.88696,-11.4893 -8.46585,-15.7223 11.48938,-42.934 22.97876,-53.214 199.55239,-35.67757 7.25645,-12.69879 -4.83764,-3.02352 -189.27242,18.74583 30.83992,-52.00456 55.02808,-73.77391 -16.32701,-5.44234 z"
         id="path2"
         inkscape:label="t" /></g><g
       id="g46"
       inkscape:label="inner shadow"><path
         id="path18"
         style="fill:#000000;fill-opacity:0.22501548;stroke-width:1.00157"
         d="m 2229.3479,806.00001 -22.6621,5.13086 c -1.7104,2.99313 -49.1738,84.23437 -49.1738,84.23437 l 12.4004,-2.56445 z m 194.9805,35.0625 -26.5098,1.70898 -98.7734,166.33401 -10.6894,27.7929 5.9863,5.1309 12.3984,-5.9863 z m -1671.45116,5.13086 -11.54493,5.98633 -45.32421,68.41406 -32.4961,58.15234 8.97852,-0.85547 76.53906,-122.71875 z m 1010.82426,28.64843 -17.5313,103.47657 2.1387,11.97265 19.2402,-8.55273 25.6563,-97.91797 c 0,0 -24.8004,-8.97852 -29.5039,-8.97852 z m 977.4726,10.68946 -4.7051,5.13086 46.6075,191.56058 14.539,10.2617 -36.3457,-206.09767 z m -693.5527,17.10351 -23.5176,2.13868 -4.7031,7.26757 20.5234,17.53125 12.8281,-1.28125 -14.5371,-16.67578 z m 101.3398,27.79297 -10.6914,1.28321 -36.3437,76.96675 10.6894,4.7032 z m -976.6172,29.50391 -79.959,18.81445 -39.7656,30.3594 -25.6562,44.8965 -8.9785,47.0351 5.5586,28.6485 19.6679,-17.1036 -3.4199,-44.0429 10.2617,-31.2129 30.3594,-38.4844 44.8965,-23.51562 z m -297.17575,22.23437 -20.0957,7.26953 -90.65039,256.98245 -0.85547,7.2695 15.82226,2.9922 9.40625,-30.7871 94.49805,-243.72658 z m -294.60937,4.27735 -14.53907,26.50973 4.27735,14.5391 7.69531,-0.4277 1.2832,-5.1329 12.40039,-34.63472 z m 1174.59182,17.95903 c 0,0 -9.407,5.1308 -11.5449,5.1308 l 26.5097,48.7442 10.2617,31.2148 0.4278,26.082 -26.9375,87.2285 3.4199,3.4219 h 17.1035 l 16.6758,-62.0019 8.125,-30.7852 -5.9863,-47.0351 -19.67,-60.2911 z m 143.2422,2.1367 -20.0977,8.125 6.8418,192.416 26.084,-1.2832 -1.711,-4.7031 z m -671.3164,1.2832 -30.3594,2.1386 53.4492,11.9707 34.6348,46.6075 -5.1328,39.7675 -22.6622,35.0625 -52.166,33.3516 50.8848,-23.0898 c 0,0 29.5025,-18.387 31.2129,-19.2422 1.7103,-0.8552 17.1035,-35.918 17.1035,-35.918 l 1.2832,-35.0625 -21.8066,-32.9238 -18.8145,-15.3926 z m 383.5468,1.2832 c 0,0 -22.2342,16.2487 -27.7929,18.3867 l 31.2148,18.8125 11.1172,10.6894 4.2754,22.6641 22.2344,-8.5527 -5.1309,-24.8008 -12.8281,-18.3867 z m -956.94724,5.1308 -8.55078,2.5645 -42.33203,100.9121 -18.81445,57.2969 -4.27539,42.332 13.68359,38.4824 37.19922,22.2344 34.20703,3.4219 11.11914,-3.8496 -21.80859,-0.4278 -24.37305,-8.5507 -18.8125,-22.2344 -8.125,-20.9531 -1.71094,-44.8965 z m 1750.55664,7.2696 33.7793,21.8066 34.207,37.627 20.0957,50.0293 -12.3984,46.1796 -33.3535,44.4688 -53.4473,13.2559 -44.4707,-4.2754 42.332,13.6816 c 0,0 40.1938,-0.428 47.0352,-1.2832 6.8415,-0.8552 30.3585,-4.7033 33.3516,-5.1309 2.9931,-0.4276 37.6289,-51.3105 37.6289,-51.3105 l 10.6894,-44.041 -3.4219,-31.6426 -35.916,-52.5937 -42.7597,-27.793 c 0,0 -30.7861,-8.9785 -33.3516,-8.9785 z m -980.4648,9.834 c 0,0 -28.6501,8.5507 -33.3536,8.5507 l -122.7168,308.7207 25.2266,4.7032 3.8496,-3.8477 31.2129,-97.0625 50.8828,-138.9668 z m 658.916,18.3867 -44.8965,122.7187 -11.1172,64.5645 10.2617,41.0488 26.5098,27.7949 29.0762,2.1367 -25.2266,-15.3925 -16.6758,-20.5254 -8.9805,-29.9297 14.9668,-80.3887 36.7715,-107.7519 z m -409.6309,17.5312 23.9453,11.5449 10.2617,19.2403 -8.5527,33.3535 -22.6621,12.3984 -22.6621,1.711 16.6758,5.1308 25.6562,-0.4277 24.7989,-20.9512 c 0,0 3.4213,-27.366 1.7109,-29.5039 -1.7103,-2.138 -11.9727,-21.8066 -11.9727,-21.8066 0,0 -13.6824,-6.8421 -15.8203,-7.6973 -2.138,-0.8551 -19.2409,-2.9922 -21.3789,-2.9922 z m 955.6641,0.8555 -5.9863,3.4199 -4.7032,7.2695 8.9785,23.5176 -0.4277,44.4688 c 0,0 -18.8125,68.4146 -18.8125,70.125 0,1.7103 -10.6914,19.6679 -10.6914,19.6679 l 14.9668,19.67 20.5234,-26.5098 14.5391,-49.1738 4.2754,-56.4414 -8.5508,-38.9102 z m -1179.2949,7.6953 24.373,2.1387 19.6699,14.1093 -2.5664,33.7813 -38.0547,48.7441 -31.2148,13.2559 -28.2207,5.1309 64.1387,-5.1309 29.9316,-14.5391 23.0898,-40.6211 5.9864,-31.6406 -12.8282,-18.8144 -20.9531,-5.9864 z m 665.332,1.7109 17.5312,32.4961 13.6817,43.1875 -8.1231,81.67 7.2676,4.2753 17.959,-1.2832 -0.4277,-37.1992 -3.42,-39.3398 -20.9531,-53.4473 z m 632.4062,26.0821 19.2403,4.2773 18.8144,19.668 -5.5586,33.7793 -32.0703,17.959 -20.0957,-0.8536 17.5313,7.6954 22.2343,3.4218 18.3868,-2.9941 18.3867,-32.4961 c 0,0 -4.2757,-25.6551 -5.1309,-27.793 -0.8552,-2.138 -26.9394,-22.664 -26.9394,-22.664 z m -1802.29488,9.4082 c 0,0 -11.97309,11.5454 -13.25586,13.2558 l -1.28125,97.918 2.13672,65.4199 3.42187,5.9864 8.55078,-5.9864 -2.56445,-9.4062 z m 677.73048,14.9648 c 0,2.138 -15.3926,40.1934 -15.3926,40.1934 l -14.9648,22.6621 20.9511,5.9863 8.5528,-15.8203 13.6816,-41.0488 z m 661.9101,26.5117 -23.0898,8.9786 6.4141,49.1738 10.2617,27.3652 44.4707,36.3457 39.3379,16.6758 53.4492,10.2617 31.6406,-2.9922 -66.7031,-7.2695 c 0,0 -44.8977,-24.3735 -48.3184,-25.6563 -3.4207,-1.2827 -26.9375,-16.248 -26.9375,-16.248 l -19.2422,-28.2207 -10.2617,-39.7656 z m -1217.3496,14.1094 c 0,0 -12.3992,13.2563 -14.9648,14.5391 l 21.8066,20.5234 49.1719,21.8067 32.0703,4.2773 41.0488,-3.4219 -23.5175,0.4278 -44.8965,-13.2559 -33.7813,-14.5371 z m 1744.9961,68.8418 c 0,0 -14.538,14.5397 -17.1035,16.25 l -1.2812,23.9434 20.5234,-2.1368 z" /></g><g
       id="g60"
       inkscape:label="highlights"><path
         style="fill:#ffffff;fill-opacity:1;stroke-width:1.00157"
         d="m 698.11951,977.40353 -7.86116,14.5129 201.36651,-32.04932 -0.60471,-5.44234 z"
         id="path46" /><path
         style="fill:#ffffff;fill-opacity:1;stroke-width:1.00157"
         d="m 1293.1485,975.58942 -18.7459,1.20941 38.0964,26.60697 31.4446,51.3999 -7.8612,36.8869 -18.7458,39.3058 4.8377,1.8141 41.1198,-38.0963 3.0236,-52.6093 -27.2117,-33.2587 z"
         id="path47" /><path
         style="fill:#ffffff;fill-opacity:1;stroke-width:1.00157"
         d="m 1525.9596,1034.8504 c 0,0 -15.1176,4.8377 -10.8847,6.6518 4.2329,1.8141 38.7011,18.7458 38.7011,18.7458 l 21.1646,36.887 4.8376,50.1904 9.6753,4.8377 17.5364,-31.4447 -1.8141,-49.5857 -26.0023,-24.7929 z"
         id="path48" /><path
         style="fill:#ffffff;fill-opacity:1;stroke-width:1.00157"
         d="m 1680.7639,1010.0576 -7.2565,7.2564 53.214,31.4446 26.0023,16.9318 0.6047,-6.6518 -12.0941,-19.9552 z"
         id="path49" /><path
         style="fill:#ffffff;fill-opacity:1;stroke-width:1.00157"
         d="m 1831.3352,903.62962 18.7458,35.67755 33.2588,-18.74583 z"
         id="path50" /><path
         style="fill:#ffffff;fill-opacity:1;stroke-width:1.00157"
         d="m 1816.2176,1010.0576 18.7458,64.7033 9.6753,9.6753 6.6517,-72.5645 z"
         id="path51" /><path
         style="fill:#ffffff;fill-opacity:1;stroke-width:1.00157"
         d="m 1928.0879,1005.2199 c 3.0235,0 20.5599,-6.04702 20.5599,-6.04702 l 1.8141,42.93402 z"
         id="path52" /><path
         style="fill:#ffffff;fill-opacity:1;stroke-width:1.00157"
         d="m 2205.6471,896.97787 c 6.047,0 96.148,13.30349 96.148,13.30349 l 7.8611,-13.90819 -7.2564,-4.23293 z"
         id="path53" /><path
         style="fill:#ffffff;fill-opacity:1;stroke-width:1.00157"
         d="m 2229.2306,810.50517 12.0941,15.72231 11.4893,-18.14113 z"
         id="path54" /><path
         style="fill:#ffffff;fill-opacity:1;stroke-width:1.00157"
         d="m 2530.978,843.7639 c 2.4188,0 84.6586,64.70335 84.6586,64.70335 l 68.3315,-50.19045 z"
         id="path55" /><path
         style="fill:#ffffff;fill-opacity:1;stroke-width:1.00157"
         d="m 2780.1161,890.93083 c 0.6047,2.41882 13.9082,31.44462 13.9082,31.44462 l 4.2329,-27.8164 z"
         id="path56" /><path
         style="fill:#ffffff;fill-opacity:1;stroke-width:1.00157"
         d="m 2555.7708,1032.4316 33.2588,45.9575 7.8611,64.0987 -9.0705,46.5622 27.2117,-31.4446 3.6282,-45.3528 -10.28,-38.0964 -27.8164,-25.3976 z"
         id="path57" /><path
         style="fill:#ffffff;fill-opacity:1;stroke-width:1.00157"
         d="m 756.77582,852.22976 -6.04705,32.04932 31.44462,-36.28225 z"
         id="path58" /><path
         style="fill:#ffffff;fill-opacity:1;stroke-width:1.00157"
         d="m 737.42528,1129.789 c 2.41882,-0.6047 46.56223,-12.6988 46.56223,-12.6988 l -8.46586,22.9788 z"
         id="path59" /><path
         style="fill:#ffffff;fill-opacity:1;stroke-width:1.00157"
         d="m 964.18936,1042.1069 13.30349,66.5175 7.25645,-66.5175 v -9.0706 z"
         id="path60" /></g></g></svg>
