<?xml version="1.0" encoding="UTF-8" standalone="no"?>
<!-- Created with Inkscape (http://www.inkscape.org/) -->

<svg
   width="2325"
   height="556"
   viewBox="0 0 2325 556"
   version="1.1"
   id="svg1"
   xml:space="preserve"
   inkscape:version="1.3.2 (091e20e, 2023-11-25, custom)"
   sodipodi:docname="twopoint5d-logo.svg"
   inkscape:export-filename="twopoint5d-logo.png"
   inkscape:export-xdpi="96"
   inkscape:export-ydpi="96"
   xmlns:inkscape="http://www.inkscape.org/namespaces/inkscape"
   xmlns:sodipodi="http://sodipodi.sourceforge.net/DTD/sodipodi-0.dtd"
   xmlns="http://www.w3.org/2000/svg"
   xmlns:svg="http://www.w3.org/2000/svg"><sodipodi:namedview
     id="namedview1"
     pagecolor="#505050"
     bordercolor="#eeeeee"
     borderopacity="1"
     inkscape:showpageshadow="0"
     inkscape:pageopacity="0"
     inkscape:pagecheckerboard="0"
     inkscape:deskcolor="#505050"
     inkscape:document-units="px"
     inkscape:zoom="0.29233581"
     inkscape:cx="1311.8475"
     inkscape:cy="677.30328"
     inkscape:window-width="1920"
     inkscape:window-height="1057"
     inkscape:window-x="-8"
     inkscape:window-y="-8"
     inkscape:window-maximized="1"
     inkscape:current-layer="layer1" /><defs
     id="defs1" /><g
     inkscape:label="container"
     inkscape:groupmode="layer"
     id="layer1"
     transform="translate(-568.58622,-804.28907)"
     style="display:inline"><path
       id="path1"
       style="display:inline;opacity:1;fill:#ffffff;stroke:none;stroke-width:6;stroke-linecap:round;stroke-linejoin:round;stroke-dasharray:none;stroke-opacity:1"
       inkscape:label="twopoint5d"
       d="m 2241.9762,804.34135 c -12.8031,-0.42459 -30.5578,1.74223 -35.041,6.31445 -2.7356,2.79 -23.2035,36.62308 -49.2481,84.88477 -67.6225,3.12609 -132.4987,7.22822 -135.1152,10.00781 -5.3287,5.66073 6.4027,15.93533 13.5566,18.97852 3.7905,1.61243 50.2667,4.90189 102.0782,7.90039 -12.2197,23.66466 -24.9131,49.44315 -37.2129,75.87501 -10.039,-0.7955 -20.8497,-0.7935 -32.6133,0.1269 -41.5208,3.249 -89.9572,30.6511 -112.0234,46.2364 -2.4281,1.7149 -1.4474,-54.0787 -4.2754,-56.93558 -2.5199,-2.5456 -69.9375,10.64158 -73.2032,16.26758 -1.6665,2.8709 5.2022,186.5621 7.2774,190.2031 3.6491,6.4024 103.9353,-12.1198 106.6035,-16.248 2.4092,-3.7277 -27.4306,-28.9119 -29.834,-103.4629 -0.7438,-23.0726 84.2773,-57.4501 119.2949,-35.2461 0.1181,0.075 0.2261,0.1572 0.3438,0.2324 -23.6511,54.8194 -43.4453,109.8165 -50.7109,153.7246 -18.9611,114.5863 61.3905,105.2648 63.2695,104.4629 37.6618,-16.0737 39.9471,-107.8436 40.1035,-119.8574 0.1129,-8.6681 -35.2529,13.3565 -36.7402,-19.2695 -1.2738,-27.9429 4.7577,-58.9436 15.0214,-90.6953 13.4359,17.3054 22.2444,37.4919 28.3594,58.1621 9.4894,32.0763 -4.8101,97.8865 -2.7109,100.3144 4.8571,5.6177 116.4391,-7.5246 118.8652,-10.4082 3.4411,-4.09 -14.9086,-120.9836 -56.789,-165.9668 -18.3454,-19.7043 -37.9768,-35.2195 -63.2149,-44.0625 12.9261,-28.13408 27.6922,-55.72089 42.3477,-81.15038 54.5733,2.80351 104.7348,4.72419 107.9062,3.35352 11.7817,-5.09209 31.0425,-40.24814 24.4024,-46.0918 -1.9216,-1.69111 -50.9088,-0.61816 -107.8028,1.5625 28.4786,-46.25923 51.378,-79.46354 50.8672,-85.60937 -0.1796,-2.16092 -6.0799,-3.34877 -13.7617,-3.60352 z m 207.1738,36.0957 c -27.6782,-0.10863 -47.082,0.69508 -49.7168,2.75391 -7.6172,5.95208 -121.9038,188.05854 -108.4492,195.20704 4.1797,2.2207 94.6965,-34.445 131.9121,-5.7344 45.6443,35.2129 96.9882,96.1311 44.9024,167.4922 -48.5018,66.4505 -161.2498,25.2009 -169.9707,-8.2539 -5.0792,-19.4848 13.0631,-43.3399 8.5468,-43.7852 -5.0923,-0.5021 -42.7968,9.4436 -44.5507,17.3028 -2.2519,10.091 6.9182,58.682 15.1582,71.0176 14.2943,21.3993 79.6456,69.1576 152.2734,64.9492 55.7058,-3.2278 123.7994,-25.7199 169.5781,-63.961 19.2709,36.5536 59.6927,52.6335 101.5449,50.4043 75.7959,-4.0371 87.0202,-36.0669 92.4727,-32.2617 2.8846,2.013 -2.9453,21.068 1.8359,21.377 9.9663,0.6441 104.3333,-11.6901 98.1875,-27.0723 -67.6636,-169.3547 -102.3444,-284.52087 -92.1816,-355.16992 0.9048,-6.29025 -24.9652,-8.43362 -40.9316,-8.75195 -9.5799,-0.19099 -17.3853,0.78179 -18.7149,3.33007 -3.7551,7.19678 45.8707,195.3522 40.668,192.4961 -28.8642,-15.8452 -69.0894,-51.8221 -137.5723,-22.9727 -9.4041,3.9617 -17.7184,10.1587 -24.9492,17.9219 -23.7905,-27.4399 -57.3609,-50.8505 -85.9941,-67.8379 -49.086,-29.12125 -166.5614,-21.24901 -169.0118,-27.42575 -1.517,-3.82392 23.6736,-44.30115 28.9063,-47.2793 5.3692,-3.05584 50.194,0.475 99.6699,12.61914 49.476,12.14413 97.5554,45.36217 103.3399,41.52539 3.7242,-2.47027 4.3807,-44.00549 12.0937,-55.66602 5.6449,-8.53396 86.7226,-68.13378 84.0469,-75.91601 -2.5621,-7.45174 -160.059,-15.9827 -243.0938,-16.3086 z m -1676.47654,2.25782 c -9.19221,-0.23644 -20.2089,3.61855 -28.44336,6.5957 -7.81778,2.8265 -51.0385,71.57396 -80.01171,127.33008 -46.25447,4.92418 -82.51533,9.09364 -84.01758,10.26367 -11.06873,8.62083 -12.98327,33.22588 -10.84375,40.66798 0.65594,2.2817 32.24777,-2.3225 74.94922,-9.6074 -28.22063,62.0508 -73.97164,171.4314 -64.10547,206.8496 10.71268,38.4571 35.10482,56.9348 74.55859,56.9355 39.45377,7e-4 70.9421,-33.6023 90.82617,-60.3242 19.88407,-26.7217 50.96846,-103.0308 46.0918,-109.8047 -3.45522,-4.7994 -58.7913,10.672 -79.98242,14.2344 -12.95994,2.1786 -44.06776,1.7545 -54.90235,-19.6563 -4.16338,-8.2274 9.29221,-49.0736 30.19922,-95.7675 86.96208,-15.58872 190.54237,-35.75328 193.47852,-35.7266 13.55554,0.12316 19.89117,-21.41724 12.87695,-21.01367 -2.25001,0.12945 -101.79,9.74622 -188.18359,18.6582 2.86222,-5.66332 5.70244,-11.34387 8.68554,-16.93164 25.45785,-47.68615 73.87545,-104.876 72.4043,-106.78515 -3.20674,-4.16147 -8.06475,-5.7761 -13.58008,-5.91797 z m 993.22854,32.25195 c -1.1634,-0.0396 -1.9215,0.0888 -2.2149,0.40625 -4.8718,5.27025 -19.2518,110.59246 -15.8847,114.00977 5.1685,5.24562 143.6928,-60.43397 144.0058,-69.58399 0.1992,-5.82546 -108.4555,-44.2377 -125.9062,-44.83203 z m -560.9688,83.29688 c -53.5027,0.41814 -110.7347,13.42017 -139.4238,39.48632 -40.9832,37.23628 -53.9527,88.78878 -42.1406,133.04298 -17.8778,12.9369 -36.24445,26.2336 -50.03909,35.0527 0,0 21.95837,-139.6942 13.55469,-136.916 -51.41574,16.9978 -113.19336,74.5586 -113.19336,74.5586 0,0 51.59982,-117.14361 49.02149,-121.67382 -4.81802,-8.46539 -60.5359,4.88487 -67.7793,10.8457 -5.92121,4.87277 -90.02436,247.75242 -89.01172,257.23442 0.8896,8.3298 64.84516,10.9709 67.7793,4.7441 39.42915,-83.6755 96.92578,-126.75 96.92578,-126.75 0,0 -4.07003,165.5622 4.74609,168.0957 7.19672,2.0682 59.46833,-59.1961 117.11912,-112.9336 29.7076,32.1313 76.0064,50.5848 126.8906,45.1523 64.0068,-6.8333 174.0668,-75.4109 187.0743,-132.8496 13.0075,-57.4387 -10.2507,-90.0616 -65.0703,-119.29293 -20.5573,-10.96178 -51.9807,-16.90803 -85.8125,-17.71289 -3.5242,-0.0838 -7.0738,-0.11186 -10.6407,-0.084 z m 463.6153,44.2852 c -28.3003,-0.5226 -60.4779,9.6632 -85.0411,25.7988 23.6292,8.8526 42.6443,24.5366 47.211,51.7578 9.4553,-6.7842 22.4268,-11.1597 33.7656,-10.9492 1.2437,0.023 2.4671,0.1005 3.6641,0.2363 19.1533,2.1741 44.8162,17.5718 41.539,34.4727 -3.2771,16.9008 -14.8865,43.7985 -41.539,42.7832 -26.6521,-1.0153 -30.4737,-5.5896 -40.2461,-14.1192 -0.8542,-0.7456 -1.6167,-1.5594 -2.3906,-2.3652 -7.3663,24.0191 -18.3593,42.7131 -31.5625,57.3848 16.0837,10.9229 36.0588,17.1373 84.2988,18.9648 70.5396,2.6724 94.9251,-68.1253 92.1816,-113.8711 -2.7435,-45.7456 -41.4898,-83.7483 -92.1816,-89.4707 -3.1681,-0.3576 -6.4075,-0.5622 -9.6992,-0.623 z m 107.666,2.4257 c -17.9693,0.1195 -31.8203,1.2607 -31.377,4.2246 2.0924,13.9887 40.9863,62.556 37.3535,96.6875 -4.6156,43.3651 -30.8252,95.0385 -26.5078,98.5215 6.2318,5.0274 89.1477,7.5058 96.3946,3.5879 1.7774,-0.9609 -5.8418,-54.3331 -4.8399,-106.8125 0.8623,-45.1716 10.9316,-90.4657 6.0488,-91.9844 -5.7325,-1.7829 -47.1234,-4.4237 -77.0722,-4.2246 z m -574.1309,6.1914 c 15.402,0.3759 29.7076,3.1517 39.0664,8.2715 24.9567,13.6527 48.7616,32.957 42.1621,80.4571 -3.7806,27.2112 -54.4961,75.5238 -84.8261,76.9609 -50.7721,2.4058 -78.4038,-50.5427 -90.0352,-73.1856 -11.6315,-22.6427 3.026,-53.324 25.3164,-74.1015 13.9315,-12.9859 42.6464,-19.0289 68.3164,-18.4024 z m 283.041,15.5899 c -48.566,0.6442 -92.9498,7.7998 -94.9453,15.7285 -11.0154,43.7668 -120.6484,306.3691 -120.6484,306.3691 0,0 74.5159,14.7022 79.9805,9.4883 5.4645,-5.2139 8.1814,-71.5671 27.789,-124.7148 5.2346,-14.1888 190.9424,34.0918 233.8438,-107.7715 24.5465,-81.1691 -49.0821,-97.4369 -105.0606,-98.9609 -6.9973,-0.1905 -14.021,-0.2307 -20.959,-0.1387 z m -23.3457,50.8164 c 5.2959,-0.052 10.3862,0.532 14.4825,2.1914 13.108,5.3103 18.3443,11.1009 17.623,32.5352 -0.7212,21.4342 -27.936,56.5374 -52.8691,69.1367 -24.9333,12.5993 -53.0879,15.1321 -55.5801,6.0996 -2.7544,-9.9827 34.7154,-101.4092 46.7676,-105.0606 5.2742,-1.5979 17.9251,-4.7887 29.5761,-4.9023 z m 1292.0352,28.9355 c 10.1028,0.1484 19.5297,3.8707 25.4844,14.0293 14.6576,25.0057 -3.4384,48.7071 -21.6817,56.4004 -18.2432,7.6934 -51.715,-1.2597 -58.959,-15.9922 -7.2439,-14.7325 0.2254,-30.8438 15.2559,-41.1308 8.9243,-6.1079 25.1347,-13.5236 39.9004,-13.3067 z" /></g></svg>
