<svg xmlns="http://www.w3.org/2000/svg" xmlns:xlink="http://www.w3.org/1999/xlink" xmlns:lucid="lucid" width="1220" height="880"><g transform="translate(-360 -280)" lucid:page-tab-id="0_0"><path d="M717.5 300h240v60h-240z" fill="none"/><use xlink:href="#a" transform="matrix(1,0,0,1,717.5,300) translate(52.90123456790123 34.44444444444444)"/><use xlink:href="#b" transform="matrix(1,0,0,1,717.5,300) translate(99.75308641975309 34.44444444444444)"/><path d="M850 350c0 5.52-4.48 10-10 10s-10-4.48-10-10 4.48-10 10-10 10 4.48 10 10z" stroke="#5e5e5e" stroke-width="3"/><path d="M762.5 546c0-3.3 2.7-6 6-6h112c3.3 0 8.26 1.46 11.04 3.25l20.92 13.5c2.78 1.8 2.78 4.7 0 6.5l-20.92 13.5c-2.78 1.8-7.73 3.25-11.04 3.25h-112c-3.3 0-6-2.7-6-6z" stroke="#de5f85" stroke-width="3" fill="#fff"/><use xlink:href="#c" transform="matrix(1,0,0,1,770.5,548) translate(41.89506172839506 17.77777777777778)"/><path d="M841 537.5h-2v-16.83h2m0-21.34h-2V482.5h2" fill="#5e5e5e"/><path d="M841 482.53h-2v-1.03h2M841 538.5h-2v-1.03h2" fill="#5e5e5e"/><use xlink:href="#d" transform="matrix(1,0,0,1,782.5432098765432,499.3333333333333) translate(0.005000000000002558 14.222222222222223)"/><path d="M840 582.5v15" stroke="#5e5e5e" stroke-width="2" fill="none"/><path d="M841 582.53h-2v-1.03h2M841 598.5h-2v-1.03h2" fill="#5e5e5e"/><path d="M840 642.5V660" stroke="#5e5e5e" stroke-width="2" fill="none"/><path d="M841 642.53h-2v-1.03h2" fill="#5e5e5e"/><path d="M840 675.26L835.36 661h9.28z" stroke="#5e5e5e" stroke-width="2" fill="#5e5e5e"/><path d="M760 406c0-3.3 2.7-6 6-6h148c3.3 0 6 2.7 6 6v68c0 3.3-2.7 6-6 6H766c-3.3 0-6-2.7-6-6z" stroke="#7ab648" stroke-width="3" fill="#fff"/><path d="M764 410c0-3.3 2.7-6 6-6h140c3.3 0 6 2.7 6 6v60c0 3.3-2.7 6-6 6H770c-3.3 0-6-2.7-6-6z" stroke="#7ab648" stroke-width="3" fill="#fff"/><path d="M764 410c0-3.3 2.7-6 6-6h140c3.3 0 6 2.7 6 6v60c0 3.3-2.7 6-6 6H770c-3.3 0-6-2.7-6-6z" fill="none"/><use xlink:href="#e" transform="matrix(1,0,0,1,760,400) translate(54.1408024691358 45.27777777777778)"/><path d="M760 686c0-3.3 2.7-6 6-6h148c3.3 0 6 2.7 6 6v68c0 3.3-2.7 6-6 6H766c-3.3 0-6-2.7-6-6z" stroke="#7ab648" stroke-width="3" fill="#fff"/><path d="M764 690c0-3.3 2.7-6 6-6h140c3.3 0 6 2.7 6 6v60c0 3.3-2.7 6-6 6H770c-3.3 0-6-2.7-6-6z" stroke="#7ab648" stroke-width="3" fill="#fff"/><path d="M764 690c0-3.3 2.7-6 6-6h140c3.3 0 6 2.7 6 6v60c0 3.3-2.7 6-6 6H770c-3.3 0-6-2.7-6-6z" fill="none"/><use xlink:href="#f" transform="matrix(1,0,0,1,760,680) translate(28.307469135802464 45.27777777777778)"/><path d="M557.5 926c0-3.3 2.7-6 6-6h148c3.3 0 6 2.7 6 6v68c0 3.3-2.7 6-6 6h-148c-3.3 0-6-2.7-6-6z" stroke="#7ab648" stroke-width="3" fill="#fff"/><path d="M561.5 930c0-3.3 2.7-6 6-6h140c3.3 0 6 2.7 6 6v60c0 3.3-2.7 6-6 6h-140c-3.3 0-6-2.7-6-6z" stroke="#7ab648" stroke-width="3" fill="#fff"/><path d="M561.5 930c0-3.3 2.7-6 6-6h140c3.3 0 6 2.7 6 6v60c0 3.3-2.7 6-6 6h-140c-3.3 0-6-2.7-6-6z" fill="none"/><use xlink:href="#g" transform="matrix(1,0,0,1,557.5,920) translate(35.221049382716046 45.27777777777778)"/><path d="M562.5 824.5c0-3.3 2.7-6 6-6h112c3.3 0 8.26 1.46 11.04 3.25l20.92 13.5c2.78 1.8 2.78 4.7 0 6.5l-20.92 13.5c-2.78 1.8-7.73 3.25-11.04 3.25h-112c-3.3 0-6-2.7-6-6z" stroke="#de5f85" stroke-width="3" fill="#fff"/><use xlink:href="#h" transform="matrix(1,0,0,1,570.5,826.5) translate(26.462962962962962 17.77777777777778)"/><path d="M757.5 720h-2.8m-3.76 0h-5.63m-3.74 0h-5.62m-3.75 0h-5.64m-3.75 0h-5.6m-3.76 0h-5.63m-3.74 0h-5.62m-3.75 0h-5.64m-3.75 0h-2.8" stroke="#5e5e5e" stroke-width="2" fill="none"/><path d="M758.5 721h-1.03v-2h1.03M682.53 721h-1.03v-2h1.03" fill="#5e5e5e"/><path d="M638.83 861v39" stroke="#5e5e5e" stroke-width="2" fill="none"/><path d="M639.83 861.03h-2V860h2" fill="#5e5e5e"/><path d="M638.83 915.26L634.2 901h9.27z" stroke="#5e5e5e" stroke-width="2" fill="#5e5e5e"/><path d="M840 362.52v34.98" stroke="#5e5e5e" stroke-width="2" fill="none"/><path d="M841 362.55h-2v-1.2l1 .17 1-.16M841 398.5h-2v-1.03h2" fill="#5e5e5e"/><path d="M765 864.5c0-3.3 2.7-6 6-6h112c3.3 0 8.26 1.46 11.04 3.25l20.92 13.5c2.78 1.8 2.78 4.7 0 6.5l-20.92 13.5c-2.78 1.8-7.73 3.25-11.04 3.25H771c-3.3 0-6-2.7-6-6z" stroke="#de5f85" stroke-width="3" fill="#fff"/><use xlink:href="#i" transform="matrix(1,0,0,1,773,866.5) translate(23.99382716049383 17.77777777777778)"/><path d="M842.5 856v-45.5c0-.7-.56-1.25-1.25-1.25-.7 0-1.25-.56-1.25-1.25v-28" stroke="#5e5e5e" stroke-width="2" fill="none"/><path d="M843.5 857h-2v-1.03h2" fill="#5e5e5e"/><path d="M840 764.74l4.64 14.26h-9.28z" stroke="#5e5e5e" stroke-width="2" fill="#5e5e5e"/><path d="M841.33 901v53c0 3.3-2.68 6-6 6H720" stroke="#5e5e5e" stroke-width="2" fill="none"/><path d="M842.33 901.03h-2V900h2M720.03 961H719v-2h1.03" fill="#5e5e5e"/><path d="M1320 607.42c0-3.32 2.7-6 6-6h112c3.3 0 8.26 1.45 11.04 3.25l20.92 13.5c2.78 1.8 2.78 4.7 0 6.5l-20.92 13.5c-2.78 1.8-7.73 3.25-11.04 3.25h-112c-3.3 0-6-2.7-6-6z" stroke="#de5f85" stroke-width="3" fill="#fff"/><use xlink:href="#j" transform="matrix(1,0,0,1,1328,609.4173228346456) translate(27.018518518518523 17.77777777777778)"/><path d="M1320 806c0-3.3 2.7-6 6-6h112c3.3 0 8.26 1.46 11.04 3.25l20.92 13.5c2.78 1.8 2.78 4.7 0 6.5l-20.92 13.5c-2.78 1.8-7.73 3.25-11.04 3.25h-112c-3.3 0-6-2.7-6-6z" stroke="#de5f85" stroke-width="3" fill="#fff"/><use xlink:href="#k" transform="matrix(1,0,0,1,1328,808) translate(28.283950617283953 17.77777777777778)"/><path d="M1215.67 664.15c2.4-2.3 6.27-2.3 8.66 0l51.34 49.2c2.4 2.3 2.4 6 0 8.3l-51.34 49.2c-2.4 2.3-6.27 2.3-8.66 0l-51.34-49.2c-2.4-2.3-2.4-6 0-8.3z" stroke="#5e5e5e" stroke-width="3" fill="#fff"/><path d="M925.44 721h-2.94v-2h2.94m9.8 2h-5.88v-2h5.87m9.8 2h-5.88v-2h5.88m9.8 2h-5.9v-2h5.9m9.78 2h-5.86v-2h5.87m9.8 2h-5.87v-2h5.88m9.8 2h-5.88v-2h5.88m9.8 2h-5.88v-2H994m3.94 2h-.03v-2h.04m97.6-.5h-6v-2h6m10 2h-6v-2h6m10 2h-6v-2h6m10 2h-6v-2h6m10 2h-6v-2h6m7 2h-3v-2h3m-57 2h-.93v-2h.93" fill="#5e5e5e"/><path d="M922.53 721h-1.03v-2h1.03M1157.8 717.5l-14.26 4.64v-9.28z" fill="#5e5e5e"/><path d="M1161.05 717.5l-18.5 6v-12m2 9.26l10.02-3.26-10.03-3.26" fill="#5e5e5e"/><use xlink:href="#l" transform="matrix(1,0,0,1,997.9400707423471,708.0833333333333) translate(0.005000000000002558 14.222222222222223)"/><use xlink:href="#m" transform="matrix(1,0,0,1,997.9400707423471,708.0833333333333) translate(32.449444444444445 14.222222222222223)"/><path d="M1234.66 622.42h-8.53l-2.64.7-1.8 1.8-.7 2.63v32.42h-2v-32.7l.92-3.4 2.53-2.53 3.42-.92h8.8m82.83 2h-53.2v-2h53.2" fill="#5e5e5e"/><path d="M1221 661.1l-1.45-.18-.55.13v-1.1h2M1318.5 622.42h-1.03v-2h1.03" fill="#5e5e5e"/><use xlink:href="#n" transform="matrix(1,0,0,1,1234.65720736224,610.750656167979) translate(0.005000000000000782 14.222222222222223)"/><path d="M1396.33 643.92V780" stroke="#5e5e5e" stroke-width="2" fill="none"/><path d="M1397.33 643.94h-2v-1.02h2" fill="#5e5e5e"/><path d="M1396.33 795.26L1391.7 781h9.27z" stroke="#5e5e5e" stroke-width="2" fill="#5e5e5e"/><path d="M1221 813.87l.7 2.64 1.8 1.8 2.63.7h9.32v2h-9.58l-3.42-.92-2.53-2.53-.92-3.42v-39.1h2m96.5 43.97v2h-60.42v-2" fill="#5e5e5e"/><path d="M1220.45 774.08l.55-.13v1.1h-2v-1.14M1318.5 821h-1.03v-2h1.03" fill="#5e5e5e"/><use xlink:href="#o" transform="matrix(1,0,0,1,1235.448545944917,809.3333333333334) translate(0.005000000000000782 14.222222222222223)"/><path d="M1167.5 683c0-3.3 2.7-6 6-6h93c3.3 0 6 2.7 6 6v68c0 3.3-2.7 6-6 6h-93c-3.3 0-6-2.7-6-6z" stroke="#000" stroke-opacity="0" stroke-width="3" fill="#fff" fill-opacity="0"/><use xlink:href="#p" transform="matrix(1,0,0,1,1172.5,682) translate(15.944444444444446 27.34722222222222)"/><use xlink:href="#q" transform="matrix(1,0,0,1,1172.5,682) translate(13.96913580246914 48.68055555555555)"/><path d="M380 560h263.87L680 596.13v144.54H380z" stroke="#999" stroke-width="3" fill="#fff"/><path d="M643.87 561.43v34.7h34.7" stroke="#999" stroke-width="3" fill="#fff"/><use xlink:href="#r" transform="matrix(1,0,0,1,385,565) translate(5.777777777777777 24.90972222222222)"/><use xlink:href="#s" transform="matrix(1,0,0,1,385,565) translate(17.777777777777775 24.90972222222222)"/><use xlink:href="#t" transform="matrix(1,0,0,1,385,565) translate(0 46.24305555555555)"/><use xlink:href="#u" transform="matrix(1,0,0,1,385,565) translate(49.382716049382715 46.24305555555555)"/><use xlink:href="#v" transform="matrix(1,0,0,1,385,565) translate(106.5185185185185 46.24305555555555)"/><use xlink:href="#w" transform="matrix(1,0,0,1,385,565) translate(130.2222222222222 46.24305555555555)"/><use xlink:href="#x" transform="matrix(1,0,0,1,385,565) translate(0 67.57638888888889)"/><use xlink:href="#r" transform="matrix(1,0,0,1,385,565) translate(5.777777777777777 88.9097222222222)"/><use xlink:href="#y" transform="matrix(1,0,0,1,385,565) translate(17.777777777777775 88.9097222222222)"/><use xlink:href="#z" transform="matrix(1,0,0,1,385,565) translate(107.40740740740738 88.9097222222222)"/><use xlink:href="#A" transform="matrix(1,0,0,1,385,565) translate(183.35802469135797 88.9097222222222)"/><use xlink:href="#x" transform="matrix(1,0,0,1,385,565) translate(0 110.24305555555554)"/><use xlink:href="#r" transform="matrix(1,0,0,1,385,565) translate(5.777777777777777 131.57638888888886)"/><use xlink:href="#B" transform="matrix(1,0,0,1,385,565) translate(17.777777777777775 131.57638888888886)"/><use xlink:href="#C" transform="matrix(1,0,0,1,385,565) translate(89.77777777777776 131.57638888888886)"/><use xlink:href="#D" transform="matrix(1,0,0,1,385,565) translate(109.53086419753083 131.57638888888886)"/><use xlink:href="#E" transform="matrix(1,0,0,1,385,565) translate(141.97530864197526 131.57638888888886)"/><use xlink:href="#F" transform="matrix(1,0,0,1,385,565) translate(198.17283950617278 131.57638888888886)"/><use xlink:href="#t" transform="matrix(1,0,0,1,385,565) translate(0 152.9097222222222)"/><use xlink:href="#G" transform="matrix(1,0,0,1,385,565) translate(49.382716049382715 152.9097222222222)"/><use xlink:href="#H" transform="matrix(1,0,0,1,385,565) translate(142.02469135802465 152.9097222222222)"/><path d="M800 940h243.87l36.13 36.13v144.54H800z" stroke="#999" stroke-width="3" fill="#fff"/><path d="M1043.87 941.43v34.7h34.7" stroke="#999" stroke-width="3" fill="#fff"/><g><use xlink:href="#r" transform="matrix(1,0,0,1,805,945) translate(5.777777777777777 24.90972222222222)"/><use xlink:href="#I" transform="matrix(1,0,0,1,805,945) translate(17.777777777777775 24.90972222222222)"/><use xlink:href="#t" transform="matrix(1,0,0,1,805,945) translate(0 46.24305555555555)"/><use xlink:href="#u" transform="matrix(1,0,0,1,805,945) translate(49.382716049382715 46.24305555555555)"/><use xlink:href="#v" transform="matrix(1,0,0,1,805,945) translate(106.5185185185185 46.24305555555555)"/><use xlink:href="#J" transform="matrix(1,0,0,1,805,945) translate(130.2222222222222 46.24305555555555)"/><use xlink:href="#x" transform="matrix(1,0,0,1,805,945) translate(0 67.57638888888889)"/><use xlink:href="#r" transform="matrix(1,0,0,1,805,945) translate(5.777777777777777 88.9097222222222)"/><use xlink:href="#y" transform="matrix(1,0,0,1,805,945) translate(17.777777777777775 88.9097222222222)"/><use xlink:href="#z" transform="matrix(1,0,0,1,805,945) translate(107.40740740740738 88.9097222222222)"/><use xlink:href="#A" transform="matrix(1,0,0,1,805,945) translate(183.35802469135797 88.9097222222222)"/><use xlink:href="#K" transform="matrix(1,0,0,1,805,945) translate(0 110.24305555555554)"/><use xlink:href="#r" transform="matrix(1,0,0,1,805,945) translate(5.777777777777777 131.57638888888886)"/><use xlink:href="#L" transform="matrix(1,0,0,1,805,945) translate(17.777777777777775 131.57638888888886)"/><use xlink:href="#M" transform="matrix(1,0,0,1,805,945) translate(89.77777777777776 131.57638888888886)"/><use xlink:href="#N" transform="matrix(1,0,0,1,805,945) translate(109.53086419753083 131.57638888888886)"/><use xlink:href="#t" transform="matrix(1,0,0,1,805,945) translate(0 152.9097222222222)"/><use xlink:href="#G" transform="matrix(1,0,0,1,805,945) translate(49.382716049382715 152.9097222222222)"/><use xlink:href="#H" transform="matrix(1,0,0,1,805,945) translate(142.02469135802465 152.9097222222222)"/></g><path d="M1340 946c0-3.3 2.7-6 6-6h88c3.3 0 6 2.7 6 6v51.33c0 3.32-2.7 6-6 6h-88c-3.3 0-6-2.68-6-6z" stroke="#000" stroke-opacity="0" stroke-width="3" fill="#fff" fill-opacity="0"/><g><use xlink:href="#O" transform="matrix(1,0,0,1,1345,945) translate(4.876543209876544 31.27777777777778)"/></g><path d="M1400 1006c0-3.3 2.7-6 6-6h148c3.3 0 6 2.7 6 6v68c0 3.3-2.7 6-6 6h-148c-3.3 0-6-2.7-6-6z" stroke="#7ab648" stroke-width="3" fill="#fff"/><path d="M1404 1010c0-3.3 2.7-6 6-6h140c3.3 0 6 2.7 6 6v60c0 3.3-2.7 6-6 6h-140c-3.3 0-6-2.7-6-6z" stroke="#7ab648" stroke-width="3" fill="#fff"/><path d="M1404 1010c0-3.3 2.7-6 6-6h140c3.3 0 6 2.7 6 6v60c0 3.3-2.7 6-6 6h-140c-3.3 0-6-2.7-6-6z" fill="none"/><g><use xlink:href="#P" transform="matrix(1,0,0,1,1400,1000) translate(34.17166666666667 30.27777777777778)"/><use xlink:href="#Q" transform="matrix(1,0,0,1,1400,1000) translate(45.930925925925926 56.94444444444445)"/></g><path d="M1400 1106c0-3.3 2.7-6 6-6h112c3.3 0 8.26 1.46 11.04 3.25l20.92 13.5c2.78 1.8 2.78 4.7 0 6.5l-20.92 13.5c-2.78 1.8-7.73 3.25-11.04 3.25h-112c-3.3 0-6-2.7-6-6z" stroke="#de5f85" stroke-width="3" fill="#fff"/><g><use xlink:href="#R" transform="matrix(1,0,0,1,1408,1108) translate(28.314814814814817 17.77777777777778)"/></g><path d="M765 803c0-3.3 2.7-6 6-6h112c3.3 0 8.26 1.46 11.04 3.25l20.92 13.5c2.78 1.8 2.78 4.7 0 6.5l-20.92 13.5c-2.78 1.8-7.73 3.25-11.04 3.25H771c-3.3 0-6-2.7-6-6z" stroke="#de5f85" stroke-width="3" fill="#fff"/><g><use xlink:href="#S" transform="matrix(1,0,0,1,773,805) translate(34.48765432098766 17.77777777777778)"/></g><path d="M762.5 606c0-3.3 2.7-6 6-6h112c3.3 0 8.26 1.46 11.04 3.25l20.92 13.5c2.78 1.8 2.78 4.7 0 6.5l-20.92 13.5c-2.78 1.8-7.73 3.25-11.04 3.25h-112c-3.3 0-6-2.7-6-6z" stroke="#de5f85" stroke-width="3" fill="#fff"/><g><use xlink:href="#S" transform="matrix(1,0,0,1,770.5,608) translate(34.48765432098766 17.77777777777778)"/></g><path d="M636 743.17V816" stroke="#5e5e5e" stroke-width="2" fill="none"/><path d="M637 743.2h-2v-1.03h2M637 817h-2v-1.03h2" fill="#5e5e5e"/><defs><path fill="#333" d="M117-194c89-4 53 116 60 194h-32v-121c0-31-8-49-39-48C34-167 62-67 57 0H25l-1-190h30c1 10-1 24 2 32 11-22 29-35 61-36" id="T"/><path fill="#333" d="M100-194c63 0 86 42 84 106H49c0 40 14 67 53 68 26 1 43-12 49-29l28 8c-11 28-37 45-77 45C44 4 14-33 15-96c1-61 26-98 85-98zm52 81c6-60-76-77-97-28-3 7-6 17-6 28h103" id="U"/><path fill="#333" d="M206 0h-36l-40-164L89 0H53L-1-190h32L70-26l43-164h34l41 164 42-164h31" id="V"/><g id="a"><use transform="matrix(0.06172839506172839,0,0,0.06172839506172839,0,0)" xlink:href="#T"/><use transform="matrix(0.06172839506172839,0,0,0.06172839506172839,12.345679012345679,0)" xlink:href="#U"/><use transform="matrix(0.06172839506172839,0,0,0.06172839506172839,24.691358024691358,0)" xlink:href="#V"/><path fill="#333" d="M-1.1 1.54h49.06v1.63H-1.1z"/></g><path fill="#333" d="M30-248c118-7 216 8 213 122C240-48 200 0 122 0H30v-248zM63-27c89 8 146-16 146-99s-60-101-146-95v194" id="W"/><path fill="#333" d="M24-231v-30h32v30H24zM24 0v-190h32V0H24" id="X"/><path fill="#333" d="M135-143c-3-34-86-38-87 0 15 53 115 12 119 90S17 21 10-45l28-5c4 36 97 45 98 0-10-56-113-15-118-90-4-57 82-63 122-42 12 7 21 19 24 35" id="Y"/><path fill="#333" d="M115-194c55 1 70 41 70 98S169 2 115 4C84 4 66-9 55-30l1 105H24l-1-265h31l2 30c10-21 28-34 59-34zm-8 174c40 0 45-34 45-75s-6-73-45-74c-42 0-51 32-51 76 0 43 10 73 51 73" id="Z"/><path fill="#333" d="M24 0v-261h32V0H24" id="aa"/><path fill="#333" d="M141-36C126-15 110 5 73 4 37 3 15-17 15-53c-1-64 63-63 125-63 3-35-9-54-41-54-24 1-41 7-42 31l-33-3c5-37 33-52 76-52 45 0 72 20 72 64v82c-1 20 7 32 28 27v20c-31 9-61-2-59-35zM48-53c0 20 12 33 32 33 41-3 63-29 60-74-43 2-92-5-92 41" id="ab"/><path fill="#333" d="M179-190L93 31C79 59 56 82 12 73V49c39 6 53-20 64-50L1-190h34L92-34l54-156h33" id="ac"/><path fill="#333" d="M87 75C49 33 22-17 22-94c0-76 28-126 65-167h31c-38 41-64 92-64 168S80 34 118 75H87" id="ad"/><path fill="#333" d="M33-261c38 41 65 92 65 168S71 34 33 75H2C39 34 66-17 66-93S39-220 2-261h31" id="ae"/><g id="b"><use transform="matrix(0.06172839506172839,0,0,0.06172839506172839,0,0)" xlink:href="#W"/><use transform="matrix(0.06172839506172839,0,0,0.06172839506172839,15.987654320987653,0)" xlink:href="#X"/><use transform="matrix(0.06172839506172839,0,0,0.06172839506172839,20.864197530864196,0)" xlink:href="#Y"/><use transform="matrix(0.06172839506172839,0,0,0.06172839506172839,31.975308641975307,0)" xlink:href="#Z"/><use transform="matrix(0.06172839506172839,0,0,0.06172839506172839,44.32098765432099,0)" xlink:href="#aa"/><use transform="matrix(0.06172839506172839,0,0,0.06172839506172839,49.19753086419753,0)" xlink:href="#ab"/><use transform="matrix(0.06172839506172839,0,0,0.06172839506172839,61.54320987654321,0)" xlink:href="#ac"/><use transform="matrix(0.06172839506172839,0,0,0.06172839506172839,72.65432098765432,0)" xlink:href="#ad"/><use transform="matrix(0.06172839506172839,0,0,0.06172839506172839,80,0)" xlink:href="#ae"/><path fill="#333" d="M-1.1 1.54h89.56v1.63H-1.1z"/></g><path fill="#de5f85" d="M25-224v-37h50v37H25zM25 0v-190h50V0H25" id="af"/><path fill="#de5f85" d="M135-194c87-1 58 113 63 194h-50c-7-57 23-157-34-157-59 0-34 97-39 157H25l-1-190h47c2 12-1 28 3 38 12-26 28-41 61-42" id="ag"/><path fill="#de5f85" d="M115-3C79 11 28 4 28-45v-112H4v-33h27l15-45h31v45h36v33H77v99c-1 23 16 31 38 25v30" id="ah"/><g id="c"><use transform="matrix(0.06172839506172839,0,0,0.06172839506172839,0,0)" xlink:href="#af"/><use transform="matrix(0.06172839506172839,0,0,0.06172839506172839,6.172839506172839,0)" xlink:href="#ag"/><use transform="matrix(0.06172839506172839,0,0,0.06172839506172839,19.691358024691358,0)" xlink:href="#af"/><use transform="matrix(0.06172839506172839,0,0,0.06172839506172839,25.864197530864196,0)" xlink:href="#ah"/></g><path fill="#333" d="M88-194c31-1 46 15 58 34l-1-101h50l1 261h-48c-2-10 0-23-3-31C134-8 116 4 84 4 32 4 16-41 15-95c0-56 19-97 73-99zm17 164c33 0 40-30 41-66 1-37-9-64-41-64s-38 30-39 65c0 43 13 65 39 65" id="ai"/><path fill="#333" d="M25-224v-37h50v37H25zM25 0v-190h50V0H25" id="aj"/><path fill="#333" d="M137-138c1-29-70-34-71-4 15 46 118 7 119 86 1 83-164 76-172 9l43-7c4 19 20 25 44 25 33 8 57-30 24-41C81-84 22-81 20-136c-2-80 154-74 161-7" id="ak"/><path fill="#333" d="M135-194c53 0 70 44 70 98 0 56-19 98-73 100-31 1-45-17-59-34 3 33 2 69 2 105H25l-1-265h48c2 10 0 23 3 31 11-24 29-35 60-35zM114-30c33 0 39-31 40-66 0-38-9-64-40-64-56 0-55 130 0 130" id="al"/><path fill="#333" d="M25 0v-261h50V0H25" id="am"/><path fill="#333" d="M133-34C117-15 103 5 69 4 32 3 11-16 11-54c-1-60 55-63 116-61 1-26-3-47-28-47-18 1-26 9-28 27l-52-2c7-38 36-58 82-57s74 22 75 68l1 82c-1 14 12 18 25 15v27c-30 8-71 5-69-32zm-48 3c29 0 43-24 42-57-32 0-66-3-65 30 0 17 8 27 23 27" id="an"/><path fill="#333" d="M123 10C108 53 80 86 19 72V37c35 8 53-11 59-39L3-190h52l48 148c12-52 28-100 44-148h51" id="ao"/><path fill="#333" d="M24 0v-54h51V0H24" id="ap"/><path fill="#333" d="M115-3C79 11 28 4 28-45v-112H4v-33h27l15-45h31v45h36v33H77v99c-1 23 16 31 38 25v30" id="aq"/><path fill="#333" d="M135-150c-39-12-60 13-60 57V0H25l-1-190h47c2 13-1 29 3 40 6-28 27-53 61-41v41" id="ar"/><path fill="#333" d="M67-93c0 74 22 123 53 168H70C40 30 18-18 18-93s22-123 52-168h50c-32 44-53 94-53 168" id="as"/><path fill="#333" d="M102-93c0 74-22 123-52 168H0C30 29 54-18 53-93c0-74-22-123-53-168h50c30 45 52 94 52 168" id="at"/><g id="d"><use transform="matrix(0.04938271604938272,0,0,0.04938271604938272,0,0)" xlink:href="#ai"/><use transform="matrix(0.04938271604938272,0,0,0.04938271604938272,10.814814814814815,0)" xlink:href="#aj"/><use transform="matrix(0.04938271604938272,0,0,0.04938271604938272,15.753086419753087,0)" xlink:href="#ak"/><use transform="matrix(0.04938271604938272,0,0,0.04938271604938272,25.629629629629633,0)" xlink:href="#al"/><use transform="matrix(0.04938271604938272,0,0,0.04938271604938272,36.44444444444445,0)" xlink:href="#am"/><use transform="matrix(0.04938271604938272,0,0,0.04938271604938272,41.38271604938272,0)" xlink:href="#an"/><use transform="matrix(0.04938271604938272,0,0,0.04938271604938272,51.25925925925927,0)" xlink:href="#ao"/><use transform="matrix(0.04938271604938272,0,0,0.04938271604938272,59.802469135802475,0)" xlink:href="#ap"/><use transform="matrix(0.04938271604938272,0,0,0.04938271604938272,64.74074074074075,0)" xlink:href="#ak"/><use transform="matrix(0.04938271604938272,0,0,0.04938271604938272,74.61728395061729,0)" xlink:href="#aq"/><use transform="matrix(0.04938271604938272,0,0,0.04938271604938272,80.49382716049384,0)" xlink:href="#an"/><use transform="matrix(0.04938271604938272,0,0,0.04938271604938272,90.37037037037038,0)" xlink:href="#ar"/><use transform="matrix(0.04938271604938272,0,0,0.04938271604938272,97.28395061728396,0)" xlink:href="#aq"/><use transform="matrix(0.04938271604938272,0,0,0.04938271604938272,103.16049382716051,0)" xlink:href="#as"/><use transform="matrix(0.04938271604938272,0,0,0.04938271604938272,109.03703703703705,0)" xlink:href="#at"/><path fill="#333" d="M-.9.95h116.7v1.87H-.9z"/></g><path fill="#7ab648" d="M190 0L58-211 59 0H30v-248h39L202-35l-2-213h31V0h-41" id="au"/><path fill="#7ab648" d="M30 0v-248h187v28H63v79h144v27H63v87h162V0H30" id="av"/><path fill="#7ab648" d="M266 0h-40l-56-210L115 0H75L2-248h35L96-30l15-64 43-154h32l59 218 59-218h35" id="aw"/><g id="e"><use transform="matrix(0.06172839506172839,0,0,0.06172839506172839,0,0)" xlink:href="#au"/><use transform="matrix(0.06172839506172839,0,0,0.06172839506172839,15.987654320987653,0)" xlink:href="#av"/><use transform="matrix(0.06172839506172839,0,0,0.06172839506172839,30.80246913580247,0)" xlink:href="#aw"/></g><path fill="#7ab648" d="M233-177c-1 41-23 64-60 70L243 0h-38l-65-103H63V0H30v-248c88 3 205-21 203 71zM63-129c60-2 137 13 137-47 0-61-80-42-137-45v92" id="ax"/><path fill="#7ab648" d="M232-93c-1 65-40 97-104 97C67 4 28-28 28-90v-158h33c8 89-33 224 67 224 102 0 64-133 71-224h33v155" id="ay"/><path fill="#7ab648" d="M33 0v-248h34V0H33" id="az"/><path fill="#7ab648" d="M143 4C61 4 22-44 18-125c-5-107 100-154 193-111 17 8 29 25 37 43l-32 9c-13-25-37-40-76-40-61 0-88 39-88 99 0 61 29 100 91 101 35 0 62-11 79-27v-45h-74v-28h105v86C228-13 192 4 143 4" id="aA"/><g id="f"><use transform="matrix(0.06172839506172839,0,0,0.06172839506172839,0,0)" xlink:href="#ax"/><use transform="matrix(0.06172839506172839,0,0,0.06172839506172839,15.987654320987653,0)" xlink:href="#ay"/><use transform="matrix(0.06172839506172839,0,0,0.06172839506172839,31.975308641975307,0)" xlink:href="#au"/><use transform="matrix(0.06172839506172839,0,0,0.06172839506172839,47.96296296296296,0)" xlink:href="#au"/><use transform="matrix(0.06172839506172839,0,0,0.06172839506172839,63.95061728395061,0)" xlink:href="#az"/><use transform="matrix(0.06172839506172839,0,0,0.06172839506172839,70.12345679012346,0)" xlink:href="#au"/><use transform="matrix(0.06172839506172839,0,0,0.06172839506172839,86.11111111111111,0)" xlink:href="#aA"/></g><path fill="#7ab648" d="M30-248c87 1 191-15 191 75 0 78-77 80-158 76V0H30v-248zm33 125c57 0 124 11 124-50 0-59-68-47-124-48v98" id="aB"/><path fill="#7ab648" d="M205 0l-28-72H64L36 0H1l101-248h38L239 0h-34zm-38-99l-47-123c-12 45-31 82-46 123h93" id="aC"/><path fill="#7ab648" d="M185-189c-5-48-123-54-124 2 14 75 158 14 163 119 3 78-121 87-175 55-17-10-28-26-33-46l33-7c5 56 141 63 141-1 0-78-155-14-162-118-5-82 145-84 179-34 5 7 8 16 11 25" id="aD"/><path fill="#7ab648" d="M30-248c118-7 216 8 213 122C240-48 200 0 122 0H30v-248zM63-27c89 8 146-16 146-99s-60-101-146-95v194" id="aE"/><g id="g"><use transform="matrix(0.06172839506172839,0,0,0.06172839506172839,0,0)" xlink:href="#aB"/><use transform="matrix(0.06172839506172839,0,0,0.06172839506172839,13.148148148148147,0)" xlink:href="#aC"/><use transform="matrix(0.06172839506172839,0,0,0.06172839506172839,27.962962962962962,0)" xlink:href="#ay"/><use transform="matrix(0.06172839506172839,0,0,0.06172839506172839,43.95061728395061,0)" xlink:href="#aD"/><use transform="matrix(0.06172839506172839,0,0,0.06172839506172839,58.76543209876543,0)" xlink:href="#av"/><use transform="matrix(0.06172839506172839,0,0,0.06172839506172839,73.58024691358024,0)" xlink:href="#aE"/></g><path fill="#de5f85" d="M135-194c53 0 70 44 70 98 0 56-19 98-73 100-31 1-45-17-59-34 3 33 2 69 2 105H25l-1-265h48c2 10 0 23 3 31 11-24 29-35 60-35zM114-30c33 0 39-31 40-66 0-38-9-64-40-64-56 0-55 130 0 130" id="aF"/><path fill="#de5f85" d="M133-34C117-15 103 5 69 4 32 3 11-16 11-54c-1-60 55-63 116-61 1-26-3-47-28-47-18 1-26 9-28 27l-52-2c7-38 36-58 82-57s74 22 75 68l1 82c-1 14 12 18 25 15v27c-30 8-71 5-69-32zm-48 3c29 0 43-24 42-57-32 0-66-3-65 30 0 17 8 27 23 27" id="aG"/><path fill="#de5f85" d="M85 4C-2 5 27-109 22-190h50c7 57-23 150 33 157 60-5 35-97 40-157h50l1 190h-47c-2-12 1-28-3-38-12 25-28 42-61 42" id="aH"/><path fill="#de5f85" d="M137-138c1-29-70-34-71-4 15 46 118 7 119 86 1 83-164 76-172 9l43-7c4 19 20 25 44 25 33 8 57-30 24-41C81-84 22-81 20-136c-2-80 154-74 161-7" id="aI"/><path fill="#de5f85" d="M185-48c-13 30-37 53-82 52C43 2 14-33 14-96s30-98 90-98c62 0 83 45 84 108H66c0 31 8 55 39 56 18 0 30-7 34-22zm-45-69c5-46-57-63-70-21-2 6-4 13-4 21h74" id="aJ"/><g id="h"><use transform="matrix(0.06172839506172839,0,0,0.06172839506172839,0,0)" xlink:href="#aF"/><use transform="matrix(0.06172839506172839,0,0,0.06172839506172839,13.518518518518517,0)" xlink:href="#aG"/><use transform="matrix(0.06172839506172839,0,0,0.06172839506172839,25.864197530864196,0)" xlink:href="#aH"/><use transform="matrix(0.06172839506172839,0,0,0.06172839506172839,39.382716049382715,0)" xlink:href="#aI"/><use transform="matrix(0.06172839506172839,0,0,0.06172839506172839,51.72839506172839,0)" xlink:href="#aJ"/></g><path fill="#de5f85" d="M135-150c-39-12-60 13-60 57V0H25l-1-190h47c2 13-1 29 3 40 6-28 27-53 61-41v41" id="aK"/><g id="i"><use transform="matrix(0.06172839506172839,0,0,0.06172839506172839,0,0)" xlink:href="#aK"/><use transform="matrix(0.06172839506172839,0,0,0.06172839506172839,8.641975308641975,0)" xlink:href="#aJ"/><use transform="matrix(0.06172839506172839,0,0,0.06172839506172839,20.98765432098765,0)" xlink:href="#aI"/><use transform="matrix(0.06172839506172839,0,0,0.06172839506172839,33.33333333333333,0)" xlink:href="#ah"/><use transform="matrix(0.06172839506172839,0,0,0.06172839506172839,40.679012345679006,0)" xlink:href="#aG"/><use transform="matrix(0.06172839506172839,0,0,0.06172839506172839,53.02469135802468,0)" xlink:href="#aK"/><use transform="matrix(0.06172839506172839,0,0,0.06172839506172839,61.66666666666666,0)" xlink:href="#ah"/></g><path fill="#de5f85" d="M12 0v-35l95-120H19v-35h142v35L67-36h103V0H12" id="aL"/><g id="j"><use transform="matrix(0.06172839506172839,0,0,0.06172839506172839,0,0)" xlink:href="#aK"/><use transform="matrix(0.06172839506172839,0,0,0.06172839506172839,8.641975308641975,0)" xlink:href="#aJ"/><use transform="matrix(0.06172839506172839,0,0,0.06172839506172839,20.98765432098765,0)" xlink:href="#aI"/><use transform="matrix(0.06172839506172839,0,0,0.06172839506172839,33.33333333333333,0)" xlink:href="#af"/><use transform="matrix(0.06172839506172839,0,0,0.06172839506172839,39.50617283950617,0)" xlink:href="#aL"/><use transform="matrix(0.06172839506172839,0,0,0.06172839506172839,50.61728395061728,0)" xlink:href="#aJ"/></g><path fill="#de5f85" d="M121-226c-27-7-43 5-38 36h38v33H83V0H34v-157H6v-33h28c-9-59 32-81 87-68v32" id="aM"/><path fill="#de5f85" d="M220-157c-53 9-28 100-34 157h-49v-107c1-27-5-49-29-50C55-147 81-57 75 0H25l-1-190h47c2 12-1 28 3 38 10-53 101-56 108 0 13-22 24-43 59-42 82 1 51 116 57 194h-49v-107c-1-25-5-48-29-50" id="aN"/><g id="k"><use transform="matrix(0.06172839506172839,0,0,0.06172839506172839,0,0)" xlink:href="#aM"/><use transform="matrix(0.06172839506172839,0,0,0.06172839506172839,7.345679012345679,0)" xlink:href="#aK"/><use transform="matrix(0.06172839506172839,0,0,0.06172839506172839,15.987654320987653,0)" xlink:href="#aG"/><use transform="matrix(0.06172839506172839,0,0,0.06172839506172839,28.333333333333332,0)" xlink:href="#aN"/><use transform="matrix(0.06172839506172839,0,0,0.06172839506172839,48.08641975308642,0)" xlink:href="#aJ"/></g><path fill="#333" d="M110-194c64 0 96 36 96 99 0 64-35 99-97 99-61 0-95-36-95-99 0-62 34-99 96-99zm-1 164c35 0 45-28 45-65 0-40-10-65-43-65-34 0-45 26-45 65 0 36 10 65 43 65" id="aO"/><path fill="#333" d="M135-194c87-1 58 113 63 194h-50c-7-57 23-157-34-157-59 0-34 97-39 157H25l-1-190h47c2 12-1 28 3 38 12-26 28-41 61-42" id="aP"/><g id="l"><use transform="matrix(0.04938271604938272,0,0,0.04938271604938272,0,0)" xlink:href="#as"/><use transform="matrix(0.04938271604938272,0,0,0.04938271604938272,5.8765432098765435,0)" xlink:href="#aO"/><use transform="matrix(0.04938271604938272,0,0,0.04938271604938272,16.691358024691358,0)" xlink:href="#aP"/></g><path fill="#333" d="M121-226c-27-7-43 5-38 36h38v33H83V0H34v-157H6v-33h28c-9-59 32-81 87-68v32" id="aQ"/><path fill="#333" d="M220-157c-53 9-28 100-34 157h-49v-107c1-27-5-49-29-50C55-147 81-57 75 0H25l-1-190h47c2 12-1 28 3 38 10-53 101-56 108 0 13-22 24-43 59-42 82 1 51 116 57 194h-49v-107c-1-25-5-48-29-50" id="aR"/><path fill="#333" d="M185-48c-13 30-37 53-82 52C43 2 14-33 14-96s30-98 90-98c62 0 83 45 84 108H66c0 31 8 55 39 56 18 0 30-7 34-22zm-45-69c5-46-57-63-70-21-2 6-4 13-4 21h74" id="aS"/><g id="m"><use transform="matrix(0.04938271604938272,0,0,0.04938271604938272,0,0)" xlink:href="#aQ"/><use transform="matrix(0.04938271604938272,0,0,0.04938271604938272,5.8765432098765435,0)" xlink:href="#ar"/><use transform="matrix(0.04938271604938272,0,0,0.04938271604938272,12.790123456790125,0)" xlink:href="#an"/><use transform="matrix(0.04938271604938272,0,0,0.04938271604938272,22.666666666666668,0)" xlink:href="#aR"/><use transform="matrix(0.04938271604938272,0,0,0.04938271604938272,38.46913580246914,0)" xlink:href="#aS"/><use transform="matrix(0.04938271604938272,0,0,0.04938271604938272,48.345679012345684,0)" xlink:href="#at"/></g><g id="n"><use transform="matrix(0.04938271604938272,0,0,0.04938271604938272,0,0)" xlink:href="#ao"/><use transform="matrix(0.04938271604938272,0,0,0.04938271604938272,9.876543209876544,0)" xlink:href="#aS"/><use transform="matrix(0.04938271604938272,0,0,0.04938271604938272,19.75308641975309,0)" xlink:href="#ak"/></g><g id="o"><use transform="matrix(0.04938271604938272,0,0,0.04938271604938272,0,0)" xlink:href="#aP"/><use transform="matrix(0.04938271604938272,0,0,0.04938271604938272,10.814814814814815,0)" xlink:href="#aO"/></g><path fill="#333" d="M210-169c-67 3-38 105-44 169h-31v-121c0-29-5-50-35-48C34-165 62-65 56 0H25l-1-190h30c1 10-1 24 2 32 10-44 99-50 107 0 11-21 27-35 58-36 85-2 47 119 55 194h-31v-121c0-29-5-49-35-48" id="aT"/><path fill="#333" d="M59-47c-2 24 18 29 38 22v24C64 9 27 4 27-40v-127H5v-23h24l9-43h21v43h35v23H59v120" id="aU"/><g id="p"><use transform="matrix(0.049382716049382706,0,0,0.049382716049382706,0,0)" xlink:href="#U"/><use transform="matrix(0.049382716049382706,0,0,0.049382716049382706,9.87654320987654,0)" xlink:href="#aa"/><use transform="matrix(0.049382716049382706,0,0,0.049382716049382706,13.777777777777775,0)" xlink:href="#U"/><use transform="matrix(0.049382716049382706,0,0,0.049382716049382706,23.654320987654316,0)" xlink:href="#aT"/><use transform="matrix(0.049382716049382706,0,0,0.049382716049382706,38.419753086419746,0)" xlink:href="#U"/><use transform="matrix(0.049382716049382706,0,0,0.049382716049382706,48.29629629629629,0)" xlink:href="#T"/><use transform="matrix(0.049382716049382706,0,0,0.049382716049382706,58.17283950617284,0)" xlink:href="#aU"/></g><path fill="#333" d="M114-163C36-179 61-72 57 0H25l-1-190h30c1 12-1 29 2 39 6-27 23-49 58-41v29" id="aV"/><path fill="#333" d="M9 0v-24l116-142H16v-24h144v24L44-24h123V0H9" id="aW"/><path fill="#333" d="M85-194c31 0 48 13 60 33l-1-100h32l1 261h-30c-2-10 0-23-3-31C134-8 116 4 85 4 32 4 16-35 15-94c0-66 23-100 70-100zm9 24c-40 0-46 34-46 75 0 40 6 74 45 74 42 0 51-32 51-76 0-42-9-74-50-73" id="aX"/><path fill="#333" d="M103-251c84 0 111 97 45 133-19 10-37 24-39 52H78c0-63 77-55 77-114 0-30-21-42-52-43-32 0-53 17-56 46l-32-2c7-45 34-72 88-72zM77 0v-35h34V0H77" id="aY"/><g id="q"><use transform="matrix(0.049382716049382706,0,0,0.049382716049382706,0,0)" xlink:href="#aV"/><use transform="matrix(0.049382716049382706,0,0,0.049382716049382706,5.876543209876542,0)" xlink:href="#U"/><use transform="matrix(0.049382716049382706,0,0,0.049382716049382706,15.75308641975308,0)" xlink:href="#Y"/><use transform="matrix(0.049382716049382706,0,0,0.049382716049382706,24.641975308641968,0)" xlink:href="#X"/><use transform="matrix(0.049382716049382706,0,0,0.049382716049382706,28.543209876543205,0)" xlink:href="#aW"/><use transform="matrix(0.049382716049382706,0,0,0.049382716049382706,37.43209876543209,0)" xlink:href="#U"/><use transform="matrix(0.049382716049382706,0,0,0.049382716049382706,47.30864197530863,0)" xlink:href="#aX"/><use transform="matrix(0.049382716049382706,0,0,0.049382716049382706,57.185185185185176,0)" xlink:href="#aY"/></g><path fill="#333" d="M63-170c30 0 51 21 51 51 0 31-20 52-51 52s-52-21-52-52 21-51 52-51" id="aZ"/><use transform="matrix(0.049382716049382706,0,0,0.049382716049382706,0,0)" xlink:href="#aZ" id="r"/><path fill="#333" d="M85 4C-2 5 27-109 22-190h50c7 57-23 150 33 157 60-5 35-97 40-157h50l1 190h-47c-2-12 1-28-3-38-12 25-28 42-61 42" id="ba"/><g id="s"><use transform="matrix(0.049382716049382706,0,0,0.049382716049382706,0,0)" xlink:href="#ai"/><use transform="matrix(0.049382716049382706,0,0,0.049382716049382706,10.814814814814813,0)" xlink:href="#aj"/><use transform="matrix(0.049382716049382706,0,0,0.049382716049382706,15.753086419753084,0)" xlink:href="#ak"/><use transform="matrix(0.049382716049382706,0,0,0.049382716049382706,25.629629629629626,0)" xlink:href="#al"/><use transform="matrix(0.049382716049382706,0,0,0.049382716049382706,36.44444444444444,0)" xlink:href="#am"/><use transform="matrix(0.049382716049382706,0,0,0.049382716049382706,41.382716049382715,0)" xlink:href="#an"/><use transform="matrix(0.049382716049382706,0,0,0.049382716049382706,51.25925925925925,0)" xlink:href="#ao"/><use transform="matrix(0.049382716049382706,0,0,0.049382716049382706,59.802469135802454,0)" xlink:href="#ap"/><use transform="matrix(0.049382716049382706,0,0,0.049382716049382706,64.74074074074072,0)" xlink:href="#al"/><use transform="matrix(0.049382716049382706,0,0,0.049382716049382706,75.55555555555553,0)" xlink:href="#an"/><use transform="matrix(0.049382716049382706,0,0,0.049382716049382706,85.43209876543207,0)" xlink:href="#ba"/><use transform="matrix(0.049382716049382706,0,0,0.049382716049382706,96.24691358024688,0)" xlink:href="#ak"/><use transform="matrix(0.049382716049382706,0,0,0.049382716049382706,106.12345679012344,0)" xlink:href="#aS"/><use transform="matrix(0.049382716049382706,0,0,0.049382716049382706,115.99999999999997,0)" xlink:href="#as"/><use transform="matrix(0.049382716049382706,0,0,0.049382716049382706,121.87654320987652,0)" xlink:href="#at"/></g><path fill="#333" d="M96-169c-40 0-48 33-48 73s9 75 48 75c24 0 41-14 43-38l32 2c-6 37-31 61-74 61-59 0-76-41-82-99-10-93 101-131 147-64 4 7 5 14 7 22l-32 3c-4-21-16-35-41-35" id="bb"/><g id="u"><use transform="matrix(0.049382716049382706,0,0,0.049382716049382706,0,0)" xlink:href="#ad"/><use transform="matrix(0.049382716049382706,0,0,0.049382716049382706,5.876543209876542,0)" xlink:href="#bb"/><use transform="matrix(0.049382716049382706,0,0,0.049382716049382706,14.765432098765428,0)" xlink:href="#ab"/><use transform="matrix(0.049382716049382706,0,0,0.049382716049382706,24.64197530864197,0)" xlink:href="#aa"/><use transform="matrix(0.049382716049382706,0,0,0.049382716049382706,28.543209876543205,0)" xlink:href="#aa"/><use transform="matrix(0.049382716049382706,0,0,0.049382716049382706,32.444444444444436,0)" xlink:href="#U"/><use transform="matrix(0.049382716049382706,0,0,0.049382716049382706,42.32098765432097,0)" xlink:href="#aX"/></g><path fill="#333" d="M115-194c53 0 69 39 70 98 0 66-23 100-70 100C84 3 66-7 56-30L54 0H23l1-261h32v101c10-23 28-34 59-34zm-8 174c40 0 45-34 45-75 0-40-5-75-45-74-42 0-51 32-51 76 0 43 10 73 51 73" id="bc"/><g id="v"><use transform="matrix(0.049382716049382706,0,0,0.049382716049382706,0,0)" xlink:href="#bc"/><use transform="matrix(0.049382716049382706,0,0,0.049382716049382706,9.87654320987654,0)" xlink:href="#ac"/></g><path fill="#333" d="M84 4C-5 8 30-112 23-190h32v120c0 31 7 50 39 49 72-2 45-101 50-169h31l1 190h-30c-1-10 1-25-2-33-11 22-28 36-60 37" id="bd"/><g id="w"><use transform="matrix(0.049382716049382706,0,0,0.049382716049382706,0,0)" xlink:href="#bd"/><use transform="matrix(0.049382716049382706,0,0,0.049382716049382706,9.87654320987654,0)" xlink:href="#Y"/><use transform="matrix(0.049382716049382706,0,0,0.049382716049382706,18.76543209876543,0)" xlink:href="#U"/><use transform="matrix(0.049382716049382706,0,0,0.049382716049382706,28.64197530864197,0)" xlink:href="#aV"/><use transform="matrix(0.049382716049382706,0,0,0.049382716049382706,34.51851851851851,0)" xlink:href="#ae"/></g><path fill="#333" d="M190-63c-7 42-38 67-86 67-59 0-84-38-90-98-12-110 154-137 174-36l-49 2c-2-19-15-32-35-32-30 0-35 28-38 64-6 74 65 87 74 30" id="be"/><g id="y"><use transform="matrix(0.049382716049382706,0,0,0.049382716049382706,0,0)" xlink:href="#ai"/><use transform="matrix(0.049382716049382706,0,0,0.049382716049382706,10.814814814814813,0)" xlink:href="#aO"/><use transform="matrix(0.049382716049382706,0,0,0.049382716049382706,21.629629629629626,0)" xlink:href="#be"/><use transform="matrix(0.049382716049382706,0,0,0.049382716049382706,31.506172839506167,0)" xlink:href="#ba"/><use transform="matrix(0.049382716049382706,0,0,0.049382716049382706,42.32098765432098,0)" xlink:href="#aR"/><use transform="matrix(0.049382716049382706,0,0,0.049382716049382706,58.12345679012345,0)" xlink:href="#aS"/><use transform="matrix(0.049382716049382706,0,0,0.049382716049382706,67.99999999999999,0)" xlink:href="#aP"/><use transform="matrix(0.049382716049382706,0,0,0.049382716049382706,78.8148148148148,0)" xlink:href="#aq"/></g><path fill="#333" d="M128 0H69L1-190h53L99-40l48-150h52" id="bf"/><path fill="#333" d="M135-194c52 0 70 43 70 98 0 56-19 99-73 100-30 1-46-15-58-35L72 0H24l1-261h50v104c11-23 29-37 60-37zM114-30c31 0 40-27 40-66 0-37-7-63-39-63s-41 28-41 65c0 36 8 64 40 64" id="bg"/><g id="z"><use transform="matrix(0.049382716049382706,0,0,0.049382716049382706,0,0)" xlink:href="#bf"/><use transform="matrix(0.049382716049382706,0,0,0.049382716049382706,9.87654320987654,0)" xlink:href="#aj"/><use transform="matrix(0.049382716049382706,0,0,0.049382716049382706,14.814814814814811,0)" xlink:href="#ak"/><use transform="matrix(0.049382716049382706,0,0,0.049382716049382706,24.691358024691354,0)" xlink:href="#aj"/><use transform="matrix(0.049382716049382706,0,0,0.049382716049382706,29.629629629629623,0)" xlink:href="#bg"/><use transform="matrix(0.049382716049382706,0,0,0.049382716049382706,40.44444444444444,0)" xlink:href="#aj"/><use transform="matrix(0.049382716049382706,0,0,0.049382716049382706,45.382716049382715,0)" xlink:href="#am"/><use transform="matrix(0.049382716049382706,0,0,0.049382716049382706,50.32098765432099,0)" xlink:href="#aj"/><use transform="matrix(0.049382716049382706,0,0,0.049382716049382706,55.25925925925926,0)" xlink:href="#aq"/><use transform="matrix(0.049382716049382706,0,0,0.049382716049382706,61.135802469135804,0)" xlink:href="#ao"/></g><path fill="#333" d="M114-157C55-157 80-60 75 0H25v-261h50l-1 109c12-26 28-41 61-42 86-1 58 113 63 194h-50c-7-57 23-157-34-157" id="bh"/><path fill="#333" d="M195-6C206 82 75 100 31 46c-4-6-6-13-8-21l49-6c3 16 16 24 34 25 40 0 42-37 40-79-11 22-30 35-61 35-53 0-70-43-70-97 0-56 18-96 73-97 30 0 46 14 59 34l2-30h47zm-90-29c32 0 41-27 41-63 0-35-9-62-40-62-32 0-39 29-40 63 0 36 9 62 39 62" id="bi"/><g id="A"><use transform="matrix(0.049382716049382706,0,0,0.049382716049382706,0,0)" xlink:href="#be"/><use transform="matrix(0.049382716049382706,0,0,0.049382716049382706,9.87654320987654,0)" xlink:href="#bh"/><use transform="matrix(0.049382716049382706,0,0,0.049382716049382706,20.691358024691354,0)" xlink:href="#an"/><use transform="matrix(0.049382716049382706,0,0,0.049382716049382706,30.567901234567895,0)" xlink:href="#aP"/><use transform="matrix(0.049382716049382706,0,0,0.049382716049382706,41.38271604938271,0)" xlink:href="#bi"/><use transform="matrix(0.049382716049382706,0,0,0.049382716049382706,52.19753086419752,0)" xlink:href="#aS"/></g><g id="B"><use transform="matrix(0.049382716049382706,0,0,0.049382716049382706,0,0)" xlink:href="#aS"/><use transform="matrix(0.049382716049382706,0,0,0.049382716049382706,9.87654320987654,0)" xlink:href="#am"/><use transform="matrix(0.049382716049382706,0,0,0.049382716049382706,14.814814814814811,0)" xlink:href="#aS"/><use transform="matrix(0.049382716049382706,0,0,0.049382716049382706,24.691358024691354,0)" xlink:href="#aR"/><use transform="matrix(0.049382716049382706,0,0,0.049382716049382706,40.49382716049382,0)" xlink:href="#aS"/><use transform="matrix(0.049382716049382706,0,0,0.049382716049382706,50.37037037037037,0)" xlink:href="#aP"/><use transform="matrix(0.049382716049382706,0,0,0.049382716049382706,61.185185185185176,0)" xlink:href="#aq"/></g><g id="C"><use transform="matrix(0.049382716049382706,0,0,0.049382716049382706,0,0)" xlink:href="#aj"/><use transform="matrix(0.049382716049382706,0,0,0.049382716049382706,4.93827160493827,0)" xlink:href="#ak"/></g><g id="D"><use transform="matrix(0.049382716049382706,0,0,0.049382716049382706,0,0)" xlink:href="#aP"/><use transform="matrix(0.049382716049382706,0,0,0.049382716049382706,10.814814814814813,0)" xlink:href="#aO"/><use transform="matrix(0.049382716049382706,0,0,0.049382716049382706,21.629629629629626,0)" xlink:href="#aq"/></g><g id="E"><use transform="matrix(0.049382716049382706,0,0,0.049382716049382706,0,0)" xlink:href="#aj"/><use transform="matrix(0.049382716049382706,0,0,0.049382716049382706,4.93827160493827,0)" xlink:href="#aP"/><use transform="matrix(0.049382716049382706,0,0,0.049382716049382706,15.753086419753084,0)" xlink:href="#ak"/><use transform="matrix(0.049382716049382706,0,0,0.049382716049382706,25.629629629629626,0)" xlink:href="#aj"/><use transform="matrix(0.049382716049382706,0,0,0.049382716049382706,30.567901234567902,0)" xlink:href="#ai"/><use transform="matrix(0.049382716049382706,0,0,0.049382716049382706,41.38271604938271,0)" xlink:href="#aS"/></g><path fill="#333" d="M231 0h-52l-39-155L100 0H48L-1-190h46L77-45c9-52 24-97 36-145h53l37 145 32-145h46" id="bj"/><g id="F"><use transform="matrix(0.049382716049382706,0,0,0.049382716049382706,0,0)" xlink:href="#bf"/><use transform="matrix(0.049382716049382706,0,0,0.049382716049382706,9.87654320987654,0)" xlink:href="#aj"/><use transform="matrix(0.049382716049382706,0,0,0.049382716049382706,14.814814814814811,0)" xlink:href="#aS"/><use transform="matrix(0.049382716049382706,0,0,0.049382716049382706,24.691358024691354,0)" xlink:href="#bj"/><use transform="matrix(0.049382716049382706,0,0,0.049382716049382706,38.51851851851851,0)" xlink:href="#al"/><use transform="matrix(0.049382716049382706,0,0,0.049382716049382706,49.33333333333333,0)" xlink:href="#aO"/><use transform="matrix(0.049382716049382706,0,0,0.049382716049382706,60.14814814814814,0)" xlink:href="#ar"/><use transform="matrix(0.049382716049382706,0,0,0.049382716049382706,67.06172839506172,0)" xlink:href="#aq"/></g><path fill="#333" d="M100-194c62-1 85 37 85 99 1 63-27 99-86 99S16-35 15-95c0-66 28-99 85-99zM99-20c44 1 53-31 53-75 0-43-8-75-51-75s-53 32-53 75 10 74 51 75" id="bk"/><g id="G"><use transform="matrix(0.049382716049382706,0,0,0.049382716049382706,0,0)" xlink:href="#ad"/><use transform="matrix(0.049382716049382706,0,0,0.049382716049382706,5.876543209876542,0)" xlink:href="#X"/><use transform="matrix(0.049382716049382706,0,0,0.049382716049382706,9.777777777777775,0)" xlink:href="#T"/><use transform="matrix(0.049382716049382706,0,0,0.049382716049382706,19.654320987654316,0)" xlink:href="#aU"/><use transform="matrix(0.049382716049382706,0,0,0.049382716049382706,24.592592592592588,0)" xlink:href="#U"/><use transform="matrix(0.049382716049382706,0,0,0.049382716049382706,34.469135802469125,0)" xlink:href="#aV"/><use transform="matrix(0.049382716049382706,0,0,0.049382716049382706,40.34567901234567,0)" xlink:href="#ab"/><use transform="matrix(0.049382716049382706,0,0,0.049382716049382706,50.222222222222214,0)" xlink:href="#bb"/><use transform="matrix(0.049382716049382706,0,0,0.049382716049382706,59.1111111111111,0)" xlink:href="#aU"/><use transform="matrix(0.049382716049382706,0,0,0.049382716049382706,64.04938271604937,0)" xlink:href="#X"/><use transform="matrix(0.049382716049382706,0,0,0.049382716049382706,67.95061728395059,0)" xlink:href="#bk"/><use transform="matrix(0.049382716049382706,0,0,0.049382716049382706,77.82716049382714,0)" xlink:href="#T"/></g><path fill="#333" d="M108 0H70L1-190h34L89-25l56-165h34" id="bl"/><g id="H"><use transform="matrix(0.049382716049382706,0,0,0.049382716049382706,0,0)" xlink:href="#bk"/><use transform="matrix(0.049382716049382706,0,0,0.049382716049382706,9.87654320987654,0)" xlink:href="#bc"/><use transform="matrix(0.049382716049382706,0,0,0.049382716049382706,19.75308641975308,0)" xlink:href="#Y"/><use transform="matrix(0.049382716049382706,0,0,0.049382716049382706,28.64197530864197,0)" xlink:href="#U"/><use transform="matrix(0.049382716049382706,0,0,0.049382716049382706,38.518518518518505,0)" xlink:href="#aV"/><use transform="matrix(0.049382716049382706,0,0,0.049382716049382706,44.39506172839505,0)" xlink:href="#bl"/><use transform="matrix(0.049382716049382706,0,0,0.049382716049382706,53.28395061728394,0)" xlink:href="#U"/><use transform="matrix(0.049382716049382706,0,0,0.049382716049382706,63.16049382716048,0)" xlink:href="#aV"/><use transform="matrix(0.049382716049382706,0,0,0.049382716049382706,69.03703703703702,0)" xlink:href="#ae"/></g><g id="I"><use transform="matrix(0.049382716049382706,0,0,0.049382716049382706,0,0)" xlink:href="#ai"/><use transform="matrix(0.049382716049382706,0,0,0.049382716049382706,10.814814814814813,0)" xlink:href="#aj"/><use transform="matrix(0.049382716049382706,0,0,0.049382716049382706,15.753086419753084,0)" xlink:href="#ak"/><use transform="matrix(0.049382716049382706,0,0,0.049382716049382706,25.629629629629626,0)" xlink:href="#al"/><use transform="matrix(0.049382716049382706,0,0,0.049382716049382706,36.44444444444444,0)" xlink:href="#am"/><use transform="matrix(0.049382716049382706,0,0,0.049382716049382706,41.382716049382715,0)" xlink:href="#an"/><use transform="matrix(0.049382716049382706,0,0,0.049382716049382706,51.25925925925925,0)" xlink:href="#ao"/><use transform="matrix(0.049382716049382706,0,0,0.049382716049382706,59.802469135802454,0)" xlink:href="#ap"/><use transform="matrix(0.049382716049382706,0,0,0.049382716049382706,64.74074074074072,0)" xlink:href="#ak"/><use transform="matrix(0.049382716049382706,0,0,0.049382716049382706,74.61728395061726,0)" xlink:href="#aq"/><use transform="matrix(0.049382716049382706,0,0,0.049382716049382706,80.49382716049381,0)" xlink:href="#an"/><use transform="matrix(0.049382716049382706,0,0,0.049382716049382706,90.37037037037035,0)" xlink:href="#ar"/><use transform="matrix(0.049382716049382706,0,0,0.049382716049382706,97.28395061728394,0)" xlink:href="#aq"/><use transform="matrix(0.049382716049382706,0,0,0.049382716049382706,103.16049382716048,0)" xlink:href="#as"/><use transform="matrix(0.049382716049382706,0,0,0.049382716049382706,109.03703703703701,0)" xlink:href="#at"/></g><g id="J"><use transform="matrix(0.049382716049382706,0,0,0.049382716049382706,0,0)" xlink:href="#bd"/><use transform="matrix(0.049382716049382706,0,0,0.049382716049382706,9.87654320987654,0)" xlink:href="#Y"/><use transform="matrix(0.049382716049382706,0,0,0.049382716049382706,18.76543209876543,0)" xlink:href="#U"/><use transform="matrix(0.049382716049382706,0,0,0.049382716049382706,28.64197530864197,0)" xlink:href="#aV"/><use transform="matrix(0.049382716049382706,0,0,0.049382716049382706,34.51851851851851,0)" xlink:href="#ae"/></g><g id="L"><use transform="matrix(0.049382716049382706,0,0,0.049382716049382706,0,0)" xlink:href="#aS"/><use transform="matrix(0.049382716049382706,0,0,0.049382716049382706,9.87654320987654,0)" xlink:href="#am"/><use transform="matrix(0.049382716049382706,0,0,0.049382716049382706,14.814814814814811,0)" xlink:href="#aS"/><use transform="matrix(0.049382716049382706,0,0,0.049382716049382706,24.691358024691354,0)" xlink:href="#aR"/><use transform="matrix(0.049382716049382706,0,0,0.049382716049382706,40.49382716049382,0)" xlink:href="#aS"/><use transform="matrix(0.049382716049382706,0,0,0.049382716049382706,50.37037037037037,0)" xlink:href="#aP"/><use transform="matrix(0.049382716049382706,0,0,0.049382716049382706,61.185185185185176,0)" xlink:href="#aq"/></g><g id="M"><use transform="matrix(0.049382716049382706,0,0,0.049382716049382706,0,0)" xlink:href="#aj"/><use transform="matrix(0.049382716049382706,0,0,0.049382716049382706,4.93827160493827,0)" xlink:href="#ak"/></g><g id="N"><use transform="matrix(0.049382716049382706,0,0,0.049382716049382706,0,0)" xlink:href="#bf"/><use transform="matrix(0.049382716049382706,0,0,0.049382716049382706,9.87654320987654,0)" xlink:href="#aj"/><use transform="matrix(0.049382716049382706,0,0,0.049382716049382706,14.814814814814811,0)" xlink:href="#ak"/><use transform="matrix(0.049382716049382706,0,0,0.049382716049382706,24.691358024691354,0)" xlink:href="#aj"/><use transform="matrix(0.049382716049382706,0,0,0.049382716049382706,29.629629629629623,0)" xlink:href="#bg"/><use transform="matrix(0.049382716049382706,0,0,0.049382716049382706,40.44444444444444,0)" xlink:href="#am"/><use transform="matrix(0.049382716049382706,0,0,0.049382716049382706,45.382716049382715,0)" xlink:href="#aS"/></g><path fill="#333" d="M30 0v-248h33v221h125V0H30" id="bm"/><path fill="#333" d="M177-190C167-65 218 103 67 71c-23-6-38-20-44-43l32-5c15 47 100 32 89-28v-30C133-14 115 1 83 1 29 1 15-40 15-95c0-56 16-97 71-98 29-1 48 16 59 35 1-10 0-23 2-32h30zM94-22c36 0 50-32 50-73 0-42-14-75-50-75-39 0-46 34-46 75s6 73 46 73" id="bn"/><path fill="#333" d="M33-154v-36h34v36H33zM33 0v-36h34V0H33" id="bo"/><g id="O"><use transform="matrix(0.06172839506172839,0,0,0.06172839506172839,0,0)" xlink:href="#bm"/><use transform="matrix(0.06172839506172839,0,0,0.06172839506172839,12.345679012345679,0)" xlink:href="#U"/><use transform="matrix(0.06172839506172839,0,0,0.06172839506172839,24.691358024691358,0)" xlink:href="#bn"/><use transform="matrix(0.06172839506172839,0,0,0.06172839506172839,37.03703703703704,0)" xlink:href="#U"/><use transform="matrix(0.06172839506172839,0,0,0.06172839506172839,49.382716049382715,0)" xlink:href="#T"/><use transform="matrix(0.06172839506172839,0,0,0.06172839506172839,61.72839506172839,0)" xlink:href="#aX"/><use transform="matrix(0.06172839506172839,0,0,0.06172839506172839,74.07407407407408,0)" xlink:href="#bo"/><path fill="#333" d="M-1.1 1.54h82.46v1.63H-1.1z"/></g><path fill="#7ab648" d="M30 0v-248h33v221h125V0H30" id="bp"/><path fill="#7ab648" d="M137-103V0h-34v-103L8-248h37l75 118 75-118h37" id="bq"/><g id="P"><use transform="matrix(0.06172839506172839,0,0,0.06172839506172839,0,0)" xlink:href="#aE"/><use transform="matrix(0.06172839506172839,0,0,0.06172839506172839,15.987654320987653,0)" xlink:href="#az"/><use transform="matrix(0.06172839506172839,0,0,0.06172839506172839,22.160493827160494,0)" xlink:href="#aD"/><use transform="matrix(0.06172839506172839,0,0,0.06172839506172839,36.9753086419753,0)" xlink:href="#aB"/><use transform="matrix(0.06172839506172839,0,0,0.06172839506172839,51.79012345679011,0)" xlink:href="#bp"/><use transform="matrix(0.06172839506172839,0,0,0.06172839506172839,64.1358024691358,0)" xlink:href="#aC"/><use transform="matrix(0.06172839506172839,0,0,0.06172839506172839,77.28395061728395,0)" xlink:href="#bq"/></g><path fill="#7ab648" d="M127-220V0H93v-220H8v-28h204v28h-85" id="br"/><g id="Q"><use transform="matrix(0.06172839506172839,0,0,0.06172839506172839,0,0)" xlink:href="#aD"/><use transform="matrix(0.06172839506172839,0,0,0.06172839506172839,14.814814814814813,0)" xlink:href="#br"/><use transform="matrix(0.06172839506172839,0,0,0.06172839506172839,26.666666666666664,0)" xlink:href="#aC"/><use transform="matrix(0.06172839506172839,0,0,0.06172839506172839,39.81481481481481,0)" xlink:href="#br"/><use transform="matrix(0.06172839506172839,0,0,0.06172839506172839,53.33333333333333,0)" xlink:href="#av"/></g><path fill="#de5f85" d="M24 0v-248h195v40H76v63h132v40H76v65h150V0H24" id="bs"/><path fill="#de5f85" d="M128 0H69L1-190h53L99-40l48-150h52" id="bt"/><g id="R"><use transform="matrix(0.06172839506172839,0,0,0.06172839506172839,0,0)" xlink:href="#bs"/><use transform="matrix(0.06172839506172839,0,0,0.06172839506172839,14.814814814814813,0)" xlink:href="#bt"/><use transform="matrix(0.06172839506172839,0,0,0.06172839506172839,27.160493827160494,0)" xlink:href="#aJ"/><use transform="matrix(0.06172839506172839,0,0,0.06172839506172839,39.50617283950617,0)" xlink:href="#ag"/><use transform="matrix(0.06172839506172839,0,0,0.06172839506172839,53.02469135802469,0)" xlink:href="#ah"/></g><g id="S"><use transform="matrix(0.06172839506172839,0,0,0.06172839506172839,0,0)" xlink:href="#aI"/><use transform="matrix(0.06172839506172839,0,0,0.06172839506172839,12.345679012345679,0)" xlink:href="#ah"/><use transform="matrix(0.06172839506172839,0,0,0.06172839506172839,19.691358024691358,0)" xlink:href="#aG"/><use transform="matrix(0.06172839506172839,0,0,0.06172839506172839,32.03703703703704,0)" xlink:href="#aK"/><use transform="matrix(0.06172839506172839,0,0,0.06172839506172839,40.67901234567901,0)" xlink:href="#ah"/></g></defs></g></svg>