<?xml version="1.0" encoding="UTF-8" standalone="no"?>
<!-- Created with Inkscape (http://www.inkscape.org/) -->

<svg
   width="210mm"
   height="297mm"
   viewBox="0 0 210 297"
   version="1.1"
   id="svg5"
   xml:space="preserve"
   inkscape:version="1.2.1 (9c6d41e410, 2022-07-14)"
   sodipodi:docname="20221122-lookbook-white.svg"
   xmlns:inkscape="http://www.inkscape.org/namespaces/inkscape"
   xmlns:sodipodi="http://sodipodi.sourceforge.net/DTD/sodipodi-0.dtd"
   xmlns="http://www.w3.org/2000/svg"
   xmlns:svg="http://www.w3.org/2000/svg"><sodipodi:namedview
     id="namedview7"
     pagecolor="#505050"
     bordercolor="#eeeeee"
     borderopacity="1"
     inkscape:showpageshadow="0"
     inkscape:pageopacity="0"
     inkscape:pagecheckerboard="0"
     inkscape:deskcolor="#505050"
     inkscape:document-units="mm"
     showgrid="false"
     inkscape:zoom="0.89263468"
     inkscape:cx="385.93616"
     inkscape:cy="561.25984"
     inkscape:window-width="2560"
     inkscape:window-height="1387"
     inkscape:window-x="3832"
     inkscape:window-y="742"
     inkscape:window-maximized="1"
     inkscape:current-layer="layer1" /><defs
     id="defs2" /><g
     inkscape:label="Ebene 1"
     inkscape:groupmode="layer"
     id="layer1"><path
       style="fill:#ffffff;stroke-width:0.360454"
       d="m 27.765891,168.45229 c -2.168068,-1.10551 -4.199381,-3.63501 -4.774667,-5.94566 -0.506523,-2.03446 -0.252864,-11.66925 0.379757,-14.42443 0.201075,-0.87571 0.456515,-3.0252 0.567647,-4.77663 0.111132,-1.75143 0.522479,-5.09506 0.914105,-7.4303 0.391625,-2.33524 0.784773,-5.44005 0.873662,-6.89958 0.08889,-1.45952 0.423267,-3.92744 0.743062,-5.48427 0.319796,-1.55683 0.591266,-3.94514 0.603266,-5.30736 0.012,-1.36223 0.22337,-4.14859 0.469711,-6.19193 0.323713,-2.68512 0.371445,-6.85431 0.17216,-15.037535 -0.185679,-7.6245 -0.146039,-12.189057 0.121373,-13.97605 0.218408,-1.459525 0.449574,-6.952646 0.513701,-12.206935 0.22468,-18.409315 1.954638,-29.992399 4.069017,-27.244465 0.48153,0.625817 0.481134,0.72042 -0.0034,0.818096 -1.318107,0.265699 -2.455045,10.916289 -2.594361,24.303423 -0.05873,5.643496 -0.290479,11.61428 -0.514996,13.268408 -0.277329,2.043218 -0.316685,5.957083 -0.122747,12.206933 0.447563,14.423155 0.373343,16.361685 -1.063414,27.775205 -0.208225,1.65413 -0.598447,5.2366 -0.867159,7.96104 -0.268712,2.72445 -0.58657,5.19237 -0.70635,5.48428 -0.119781,0.2919 -0.468892,2.99866 -0.775802,6.01501 -0.306911,3.01635 -0.737711,6.67843 -0.957334,8.13796 -1.594151,10.59407 0.178322,16.65826 5.283524,18.0766 1.089747,0.30275 7.429848,-0.0918 8.741701,-0.54404 1.317512,-0.45417 18.370937,-1.23976 26.769657,-1.23319 5.150107,0.004 11.181516,-0.10322 13.40313,-0.23832 2.221615,-0.13511 5.856985,-0.22958 8.078599,-0.20994 12.26952,0.10846 19.327417,-0.023 24.603007,-0.45828 3.65682,-0.30171 9.3305,-0.2099 21.48172,0.3476 2.74253,0.12583 6.21821,-0.0101 9.91464,-0.38777 4.70203,-0.48041 8.38438,-0.54987 21.17676,-0.39948 18.45724,0.217 17.17675,0.4891 18.63541,-3.96008 1.70076,-5.18761 2.2965,-16.83221 1.27612,-24.94346 -0.19762,-1.57096 -0.42182,-5.88149 -0.49821,-9.57895 -0.50374,-24.3805 -0.66759,-28.515395 -1.12585,-28.411165 -0.58622,0.13334 -11.10104,10.092955 -15.22156,14.417855 -1.71293,1.79788 -5.06228,5.1767 -7.443,7.50849 -6.01743,5.89377 -6.8272,7.73329 -3.80712,8.64848 1.43845,0.43591 4.85401,2.89148 5.92795,4.26182 0.58563,0.74726 4.63121,4.7951 8.99017,8.99521 7.57374,7.29773 7.99452,7.7754 9.48375,10.7659 1.76197,3.53821 1.71347,5.95809 -0.0548,2.7315 -2.62311,-4.78653 -3.14229,-5.41179 -9.76304,-11.75762 -3.75613,-3.60016 -7.73817,-7.59664 -8.84897,-8.88106 -2.40044,-2.77561 -8.16649,-7.24913 -8.83246,-6.85254 -1.69081,1.00689 -2.68791,17.46305 -1.02734,16.95521 1.00606,-0.30767 1.22937,0.67193 0.59303,2.60148 -0.44018,1.33476 -0.72884,1.68233 -1.46897,1.76879 -1.25687,0.14681 -1.37048,-0.26383 -1.79504,-6.48826 l -0.36283,-5.31919 1.6365,-8.12613 c 0.90007,-4.46938 1.83377,-9.32029 2.07486,-10.77982 0.56313,-3.40889 3.04402,-15.22695 3.9962,-19.036435 1.15485,-4.62032 2.68107,-6.48179 3.49223,-4.25934 0.26351,0.72198 0.20356,1.07603 -0.25741,1.5202 -1.20972,1.16562 -6.63942,25.425865 -6.06331,27.091215 0.0706,0.20403 1.69617,-1.26435 3.61242,-3.26306 8.18782,-8.54017 15.25838,-15.58886 19.4228,-19.36271 5.85605,-5.306845 5.91023,-5.397745 5.91023,-9.915925 0,-1.98727 0.24246,-5.471334 0.5388,-7.742369 0.969,-7.42608 1.67224,-18.145931 1.66358,-25.358602 -0.005,-3.892067 0.20547,-9.225967 0.46697,-11.853112 0.26667,-2.678882 0.47031,-9.205198 0.4637,-14.860617 l -0.0118,-10.08399 -1.03434,-1.534142 c -2.09188,-3.102686 -6.83391,-4.204884 -19.34576,-4.496568 -24.36377,-0.567982 -48.26743,-0.242654 -53.61252,0.729667 -0.50492,0.09185 -2.90096,0.253076 -5.32453,0.358284 -2.42358,0.105209 -4.90225,0.252272 -5.50814,0.326808 -1.828167,0.224897 -5.336307,0.528732 -8.445801,0.73148 -1.615719,0.105349 -3.350782,0.259799 -3.855694,0.343221 -1.686592,0.278661 -7.223586,0.541366 -15.09306,0.716097 -4.287999,0.09521 -10.288778,0.323526 -13.335067,0.50737 -3.04629,0.183845 -9.569677,0.347619 -14.496414,0.363942 -9.879128,0.03273 -9.49431,-0.03627 -10.89631,1.953841 -2.129736,3.02312 -3.02135,6.735297 -4.37666,18.221947 -0.978799,8.295611 -1.353699,10.417696 -1.726924,9.775088 -0.185678,-0.319695 -0.255178,-0.709758 -0.154445,-0.866806 0.100733,-0.157048 0.284358,-2.265466 0.408054,-4.685369 0.676872,-13.241801 1.862268,-19.969092 3.896616,-22.11384 0.381069,-0.401749 0.692853,-0.891462 0.692853,-1.088252 0,-1.707987 1.594797,-2.071472 9.301508,-2.119989 6.975419,-0.04391 14.668958,-0.25521 23.93091,-0.657243 2.221615,-0.09643 7.083948,-0.263988 10.805182,-0.372343 3.721234,-0.108355 6.860871,-0.252826 6.976971,-0.321048 0.116101,-0.06822 2.359263,-0.223377 4.984808,-0.344789 2.625545,-0.121412 5.599938,-0.30794 6.609756,-0.414507 1.00983,-0.106568 2.57965,-0.247402 3.488493,-0.312965 0.908844,-0.06556 3.800604,-0.29784 6.426154,-0.516171 13.61061,-1.131809 21.96391,-1.569356 29.92753,-1.567608 42.88062,0.0094 47.44868,0.577168 50.57979,6.28649 0.63355,1.155225 0.84611,26.572628 0.23025,27.532783 -0.14354,0.223787 -0.38083,5.194395 -0.52731,11.045798 -0.27953,11.166399 -0.83281,20.62349 -1.45043,24.791886 -0.85189,5.749538 -0.91731,10.231378 -0.1449,9.927668 2.21259,-0.86999 2.58086,0.32222 0.71442,2.31284 l -1.33243,1.42108 0.21609,2.89937 c 0.29924,4.015025 0.90393,29.352745 0.7078,29.658515 -0.0878,0.13684 0.0953,2.00939 0.40675,4.16123 0.31148,2.15183 0.56082,4.9118 0.55408,6.13327 -0.007,1.22147 -0.003,4.21111 0.008,6.64365 0.0371,8.23622 -1.19341,16.64502 -2.7615,18.87138 l -0.78862,1.11969 -3.83555,-0.0711 c -12.42493,-0.23039 -31.72288,-0.11715 -33.94668,0.1992 -4.0884,0.58158 -22.50413,0.49235 -27.19928,-0.13179 -1.17847,-0.15666 -3.40234,-0.0253 -6.05894,0.35776 -2.30841,0.33289 -5.43644,0.57173 -6.95117,0.53075 -10.989647,-0.2973 -49.435244,0.0671 -55.81577,0.52904 -1.716702,0.12428 -5.434693,0.47797 -8.262203,0.78596 -8.707418,0.94848 -10.743107,0.94019 -12.688269,-0.0517 z m 8.710172,-13.88331 c -0.928253,-0.89442 -0.199797,-1.55237 1.499436,-1.3543 1.898181,0.22125 4.4217,-0.16352 13.678537,-2.08561 8.499957,-1.76493 8.704114,-1.82066 10.214158,-2.78837 0.744109,-0.47686 1.93372,-1.1976 2.643575,-1.60165 6.86801,-3.9092 4.376056,-20.75706 -3.644451,-24.63976 -4.087334,-1.97866 -20.235466,-4.5818 -21.408853,-3.45119 -0.581773,0.56057 -0.863998,15.83934 -0.358249,19.39448 1.136475,7.98881 1.312822,10.33243 0.820483,10.90404 -0.725285,0.84205 -1.359637,0.11073 -1.599415,-1.84391 -0.112956,-0.92081 -0.409672,-3.2664 -0.659369,-5.21243 -0.671114,-5.23036 -0.557216,-24.79158 0.150779,-25.89538 0.241682,-0.3768 0.7182,-4.09259 1.222861,-9.53563 0.223449,-2.41 0.190595,-2.56184 -0.719271,-3.32412 -1.501174,-1.25767 -2.043595,-4.343765 -1.002057,-5.701175 0.432681,-0.5639 0.685841,-1.18251 0.562577,-1.37468 -0.777367,-1.21196 0.742598,-2.28523 2.202677,-1.55535 0.551061,0.27548 1.137962,0.41986 1.304224,0.32085 1.863847,-1.10993 10.775429,-2.66706 15.153679,-2.6478 11.263686,0.0495 12.312912,4.68534 2.523593,11.150045 -2.548574,1.68303 -8.249035,5.36291 -9.29312,5.99907 -3.466342,2.11207 -5.765499,3.37367 -6.148206,3.37367 -0.650956,0 0.113607,-0.68279 1.975436,-1.76416 0.80786,-0.46921 3.599922,-2.21468 6.204583,-3.87882 2.604659,-1.66414 5.09069,-3.21775 5.524511,-3.45247 3.65496,-1.97748 7.321311,-6.845155 6.402862,-8.500825 -1.463482,-2.63819 -12.814971,-2.56079 -19.289079,0.13151 -0.636418,0.26466 -1.403021,0.4812 -1.703562,0.4812 -2.014633,0 -2.253494,0.8573 -2.330247,8.363545 -0.03952,3.86529 -0.15976,8.4292 -0.267191,10.142 -0.226324,3.60836 -0.0049,3.85752 3.028306,3.40721 0.93247,-0.13843 1.788501,-0.19855 1.902293,-0.13359 0.113791,0.065 1.556355,0.20889 3.205698,0.31986 1.649342,0.11097 4.530632,0.61018 6.402869,1.10936 1.872234,0.49918 3.916024,1.03202 4.541755,1.18409 4.99274,1.21332 8.188721,4.79162 10.131779,11.34377 l 0.472175,1.59221 0.0941,-1.76912 c 0.561463,-10.55509 7.289074,-31.15168 11.846149,-36.266985 0.953514,-1.07032 1.922839,-2.5033 2.154056,-3.18441 1.840598,-5.42201 4.536445,-5.20605 10.032474,0.80368 7.600392,8.310785 12.955182,20.226965 13.869242,30.863585 0.0613,0.71361 0.74251,-0.73557 0.74842,-1.59221 0.056,-8.12138 7.51913,-21.05626 14.35856,-24.885865 2.37943,-1.3323 4.02923,-1.32496 1.98083,0.009 -11.80914,7.689305 -17.71468,24.301935 -14.14754,39.797915 3.09427,13.44177 18.28073,14.35017 27.24578,1.62973 4.8373,-6.86359 9.52923,-20.67663 8.43809,-24.84182 -0.20732,-0.79143 -0.47499,-2.47389 -0.59481,-3.73881 -0.27301,-2.88199 -1.11058,-5.78547 -1.83638,-6.36588 -0.30499,-0.24389 -0.55513,-0.78218 -0.5559,-1.19621 -0.002,-0.9773 -1.37623,-3.148735 -1.82418,-2.881975 -0.43059,0.25642 -1.34134,-1.06378 -1.69884,-2.46259 -0.32231,-1.26114 -5.7612,-6.47688 -7.08877,-6.79793 -1.64549,-0.39794 -3.80682,3.73564 -2.45226,4.69001 0.52339,0.36876 0.52709,0.46369 0.0336,0.85834 -0.8058,0.64437 -0.68403,1.93736 0.40206,4.26928 0.52633,1.130065 0.88854,2.252415 0.80493,2.494125 -0.25647,0.74137 -1.8951,-1.8329 -2.72588,-4.282355 -0.68936,-2.03247 -0.88212,-2.29106 -1.65244,-2.21671 -0.8247,0.0796 -0.83176,0.0642 -0.12992,-0.28328 0.45257,-0.22409 1.07452,-1.29231 1.59404,-2.73785 1.91661,-5.33285 3.51759,-5.34316 9.08175,-0.0585 12.2333,11.618785 13.44244,25.109815 3.82814,42.712665 -10.89345,19.94486 -33.37644,17.04065 -33.42074,-4.31709 -0.004,-1.84519 -0.61717,-0.47795 -1.10314,2.45908 -1.45102,8.76942 -6.34682,14.92546 -13.935541,17.52271 -10.184305,3.48559 -17.844605,-0.67223 -21.690488,-11.77307 -1.053442,-3.04067 -1.308553,-3.00212 -1.562724,0.23612 -0.557691,7.10515 -5.352946,10.83498 -15.690001,12.20395 -1.514738,0.2006 -4.323887,0.70351 -6.242554,1.11758 -6.874867,1.48367 -10.974423,2.02146 -11.505883,1.50937 z m 55.938177,-4.5599 c 2.789173,-0.87798 4.147653,-1.80181 8.06423,-5.48405 4.05385,-3.81131 7.25424,-15.5346 5.73819,-21.01949 -0.3206,-1.15986 -0.58332,-2.83168 -0.58382,-3.71516 -0.002,-3.62608 -5.20609,-16.71462 -8.165087,-20.535925 -0.37672,-0.48651 -1.29608,-1.78166 -2.043012,-2.87812 -4.288693,-6.29555 -8.510279,-8.86274 -9.373341,-5.70002 -1.084461,3.97404 -1.078207,3.89973 -0.472294,5.61317 1.0588,2.99414 0.04646,2.8481 -1.10123,-0.15886 -0.346958,-0.90904 -0.745354,-1.7815 -0.885323,-1.9388 -1.182927,-1.32941 -7.312604,14.742385 -11.039721,28.945765 -2.816941,10.73486 1.215521,22.52151 9.1501,26.74522 2.984774,1.58885 5.953832,1.62385 10.711308,0.12627 z M 88.317281,97.330255 c -0.108036,-2.06144 -0.322707,-2.87266 -0.990491,-3.74296 -1.004041,-1.30854 -0.804584,-1.73308 0.443904,-0.94485 1.949774,1.23097 3.015213,4.95601 1.868657,6.53328 -0.92934,1.278465 -1.176427,0.933545 -1.32207,-1.84547 z m 52.246749,4.135605 c -0.75196,-1.33931 -3.98317,-4.306615 -5.46174,-5.015645 -1.78857,-0.85769 -2.01706,-1.21169 -0.55366,-0.85779 2.12063,0.51285 6.16192,3.8567 6.51078,5.387185 0.27774,1.21842 0.0443,1.44752 -0.49538,0.48625 z M 40.368344,82.031998 c -1.239914,-2.465819 0.0311,-34.925818 1.767857,-45.148916 0.407454,-2.398393 2.993847,-11.070825 3.425795,-11.487028 0.640252,-0.616915 1.088149,0.663467 0.680557,1.945474 -3.499028,11.00555 -4.305875,18.274107 -4.290729,38.653455 0.01136,15.290131 0.07367,15.789143 1.924554,15.414394 0.54136,-0.109608 5.309616,-0.354698 10.596123,-0.544645 5.286511,-0.189944 9.748101,-0.368168 9.914645,-0.396053 1.545098,-0.258709 3.466042,0.09108 3.35921,0.61168 -0.128054,0.624047 0.0056,0.6146 -13.705461,0.968729 -3.433405,0.08868 -7.841253,0.266387 -9.79522,0.394903 -3.214506,0.211428 -3.583569,0.172213 -3.877331,-0.411993 z M 123.81061,79.124837 C 118.1019,77.123228 111.38116,71.658166 109.05094,67.122819 l -1.39753,-2.720045 0.0925,-4.184326 c 0.1253,-5.66999 2.45901,-14.240331 5.54396,-20.359756 2.54556,-5.049485 8.35627,-10.661428 11.03903,-10.661428 0.40212,0 1.68275,-0.238831 2.84585,-0.530736 11.2769,-2.830196 21.02129,7.952965 21.04953,23.293447 0.0277,15.056084 -14.10355,30.779827 -24.41365,27.164862 z M 131.522,77.57388 c 17.00096,-8.672292 20.55941,-38.78236 5.48751,-46.433064 -6.28933,-3.192554 -9.96075,-2.876946 -9.75608,0.838668 0.0995,1.805805 -0.92566,3.586616 -2.06464,3.586616 -0.47886,0 -0.43979,-0.152195 0.21025,-0.818909 1.59157,-1.632398 0.9215,-4.372328 -0.97132,-3.971748 -3.2924,0.696774 -5.01668,5.749342 -2.82036,8.264373 1.58988,1.820597 1.03893,2.558765 -0.64236,0.860631 -1.34148,-1.354925 -1.81382,-2.762806 -1.53277,-4.56867 0.31673,-2.035101 -0.15204,-1.958309 -1.97036,0.322779 -1.53543,1.926204 -1.86337,2.547615 -3.68773,6.988028 -6.24998,15.212149 -6.09694,22.566169 0.60176,28.915541 6.60106,6.256826 12.56884,8.350641 17.1461,6.015755 z M 86.355291,78.104351 C 74.081545,76.172517 68.916361,69.177348 69.382613,55.118391 69.887166,39.904638 80.482917,26.587365 90.031215,29.166187 c 3.225201,0.871068 8.790588,9.072755 12.505935,18.429936 2.58829,6.51867 0.61159,18.361694 -4.071297,24.39243 -3.218188,4.144463 -8.307246,6.714423 -12.110562,6.115798 z m 5.795561,-2.38417 c 1.167908,-0.571536 2.387468,-1.42738 2.710131,-1.901876 0.322663,-0.474496 1.20508,-1.513335 1.96093,-2.308533 1.68032,-1.767777 3.045953,-4.340514 3.678567,-6.930086 0.26147,-1.070318 0.722,-2.503307 1.0234,-3.184418 1.54564,-3.49279 0.2548,-12.880486 -2.479937,-18.035522 -0.57057,-1.07555 -1.63038,-3.197276 -2.35513,-4.714946 -3.042363,-6.370942 -6.000926,-9.223918 -8.850622,-8.534761 -1.331166,0.321924 -1.158739,0.676802 0.652721,1.34339 2.854019,1.05023 5.759373,4.667473 5.759373,7.170571 v 1.543854 l -1.246924,-1.329889 c -0.685811,-0.731438 -1.427382,-1.965859 -1.647943,-2.743157 -0.94748,-3.339105 -2.897734,-4.907722 -6.101754,-4.907722 -3.075336,0 -4.26239,0.899419 -5.545937,4.202102 -0.263421,0.677808 -0.281113,0.674078 -0.419554,-0.08846 -0.561606,-3.093305 -6.405969,7.280372 -7.990509,14.183065 -0.87835,3.826329 -0.624645,12.482801 0.460146,15.70033 3.060992,9.079013 12.940325,14.183164 20.393042,10.536054 z m 90.140908,1.211589 c -0.49184,-0.786965 -7.90858,-6.603725 -10.37417,-8.136198 -1.94581,-1.20941 -8.37603,-7.132314 -12.06752,-11.115458 -1.62319,-1.75143 -3.10598,-3.244533 -3.29508,-3.318008 -0.61964,-0.240756 0.12098,3.200301 1.61021,7.481347 1.65496,4.757443 1.85823,6.796295 0.70652,7.086498 -1.27584,0.321478 -2.01602,-2.150629 -2.38328,-7.959856 -0.0332,-0.525747 -0.23727,-1.162631 -0.45341,-1.415297 -3.02818,-3.539898 -1.23328,-35.664897 1.99268,-35.664897 0.84265,0 0.86727,0.684462 0.10323,2.869819 -1.3012,3.721774 -2.77385,21.888521 -1.88332,23.232848 0.20655,0.311807 1.585,-1.049206 4.47946,-4.422803 5.50408,-6.415202 7.87513,-8.785759 12.25628,-12.253735 2.00135,-1.58421 4.64525,-3.691989 5.87534,-4.683954 2.57944,-2.080107 4.46659,-3.106738 5.20734,-2.832847 0.72582,0.268372 0.64575,1.250431 -0.12495,1.532447 -6.80623,2.490555 -26.68718,21.887351 -26.00818,25.374812 0.43209,2.219242 9.45408,11.452664 14.75838,15.104236 7.01717,4.83074 10.42358,7.825887 10.42358,9.165122 0,0.893559 -0.24531,0.880425 -0.82311,-0.04408 z"
       id="path179" /></g></svg>
