<?xml version="1.0" encoding="UTF-8" standalone="no"?>
<!DOCTYPE svg PUBLIC "-//W3C//DTD SVG 1.1//EN" "http://www.w3.org/Graphics/SVG/1.1/DTD/svg11.dtd">
<svg width="100%" height="100%" viewBox="0 0 1024 768" version="1.1" xmlns="http://www.w3.org/2000/svg" xmlns:xlink="http://www.w3.org/1999/xlink" xml:space="preserve" xmlns:serif="http://www.serif.com/" style="fill-rule:evenodd;clip-rule:evenodd;stroke-linecap:square;stroke-miterlimit:3;">
    <g id="hintergrund" transform="matrix(0.939692,0,0,1.24562,30.2778,-235.799)">
        <rect x="20.507" y="189.271" width="1008.16" height="582.672" style="fill:white;"/>
    </g>
    <g id="zeile-unten" serif:id="zeile unten" transform="matrix(1,0,0,1,0,383.39)">
        <g transform="matrix(0.44565,0,0,0.44565,3.27215,-27.6832)">
            <g transform="matrix(602.817,0,0,602.817,167.497,632.7)">
                <path d="M-0.001,-0L0.273,-0.716L0.375,-0.716L0.668,-0L0.561,-0L0.477,-0.217L0.178,-0.217L0.099,-0L-0.001,-0ZM0.205,-0.294L0.448,-0.294L0.373,-0.492C0.35,-0.552 0.333,-0.602 0.322,-0.641C0.313,-0.595 0.3,-0.549 0.284,-0.504L0.205,-0.294Z" style="fill:rgb(170,178,183);fill-opacity:0.58;fill-rule:nonzero;"/>
            </g>
            <g transform="matrix(602.817,0,0,602.817,569.572,632.7)">
                <path d="M0.05,0.043L0.135,0.056C0.139,0.082 0.149,0.101 0.165,0.113C0.187,0.13 0.217,0.138 0.254,0.138C0.295,0.138 0.326,0.13 0.349,0.113C0.371,0.097 0.386,0.074 0.394,0.045C0.398,0.027 0.4,-0.011 0.4,-0.068C0.361,-0.023 0.314,-0 0.256,-0C0.185,-0 0.13,-0.026 0.091,-0.077C0.052,-0.129 0.032,-0.19 0.032,-0.262C0.032,-0.312 0.041,-0.357 0.059,-0.399C0.077,-0.441 0.103,-0.473 0.137,-0.496C0.171,-0.519 0.211,-0.53 0.257,-0.53C0.318,-0.53 0.368,-0.506 0.408,-0.456L0.408,-0.519L0.489,-0.519L0.489,-0.07C0.489,0.01 0.481,0.068 0.465,0.101C0.448,0.135 0.422,0.162 0.386,0.181C0.351,0.201 0.307,0.21 0.255,0.21C0.193,0.21 0.143,0.197 0.105,0.169C0.067,0.141 0.049,0.099 0.05,0.043ZM0.123,-0.269C0.123,-0.201 0.136,-0.151 0.163,-0.12C0.19,-0.088 0.224,-0.073 0.265,-0.073C0.305,-0.073 0.339,-0.088 0.366,-0.119C0.394,-0.15 0.407,-0.199 0.407,-0.266C0.407,-0.329 0.393,-0.377 0.365,-0.409C0.337,-0.441 0.303,-0.458 0.263,-0.458C0.224,-0.458 0.191,-0.442 0.164,-0.41C0.136,-0.378 0.123,-0.331 0.123,-0.269Z" style="fill:rgb(170,178,183);fill-opacity:0.58;fill-rule:nonzero;"/>
            </g>
            <g transform="matrix(602.817,0,0,602.817,904.83,632.7)">
                <rect x="0.032" y="-0.303" width="0.27" height="0.088" style="fill:rgb(170,178,183);fill-opacity:0.58;fill-rule:nonzero;"/>
            </g>
            <g transform="matrix(602.817,0,0,602.817,1105.57,632.7)">
                <path d="M0.066,-0L0.066,-0.519L0.145,-0.519L0.145,-0.446C0.161,-0.471 0.182,-0.492 0.209,-0.507C0.236,-0.523 0.267,-0.53 0.302,-0.53C0.34,-0.53 0.372,-0.522 0.396,-0.506C0.421,-0.49 0.438,-0.468 0.448,-0.439C0.489,-0.5 0.543,-0.53 0.608,-0.53C0.66,-0.53 0.699,-0.516 0.727,-0.488C0.755,-0.459 0.769,-0.415 0.769,-0.356L0.769,-0L0.681,-0L0.681,-0.327C0.681,-0.362 0.678,-0.387 0.673,-0.403C0.667,-0.418 0.657,-0.431 0.642,-0.44C0.627,-0.449 0.609,-0.454 0.589,-0.454C0.552,-0.454 0.522,-0.442 0.498,-0.418C0.474,-0.393 0.462,-0.355 0.462,-0.301L0.462,-0L0.374,-0L0.374,-0.337C0.374,-0.376 0.367,-0.405 0.353,-0.425C0.338,-0.444 0.315,-0.454 0.282,-0.454C0.257,-0.454 0.235,-0.448 0.214,-0.435C0.193,-0.422 0.177,-0.403 0.168,-0.377C0.159,-0.352 0.154,-0.316 0.154,-0.269L0.154,-0L0.066,-0Z" style="fill:rgb(170,178,183);fill-opacity:0.58;fill-rule:nonzero;"/>
            </g>
            <g transform="matrix(602.817,0,0,602.817,1775.21,632.7)">
                <path d="M0.077,-0L0.077,-0.716L0.347,-0.716C0.395,-0.716 0.431,-0.714 0.456,-0.709C0.491,-0.703 0.521,-0.692 0.544,-0.676C0.568,-0.659 0.587,-0.636 0.602,-0.606C0.616,-0.577 0.624,-0.544 0.624,-0.509C0.624,-0.448 0.604,-0.396 0.565,-0.354C0.527,-0.312 0.457,-0.291 0.355,-0.291L0.172,-0.291L0.172,-0L0.077,-0ZM0.172,-0.375L0.357,-0.375C0.418,-0.375 0.462,-0.387 0.487,-0.41C0.513,-0.432 0.526,-0.465 0.526,-0.506C0.526,-0.536 0.518,-0.561 0.503,-0.583C0.488,-0.604 0.468,-0.618 0.443,-0.625C0.427,-0.629 0.398,-0.631 0.355,-0.631L0.172,-0.631L0.172,-0.375Z" style="fill:rgb(170,178,183);fill-opacity:0.58;fill-rule:nonzero;"/>
            </g>
        </g>
        <g transform="matrix(1,0,0,1,2.19715,-132.022)">
            <path d="M66.01,386.379L977.572,386.379" style="fill:none;stroke:black;stroke-width:6px;"/>
        </g>
        <g transform="matrix(1,0,0,1,2.19715,-324.355)">
            <path d="M66.01,386.379L977.572,386.379" style="fill:none;stroke:black;stroke-width:3px;"/>
        </g>
        <g transform="matrix(1,0,0,1,2.19715,-75.3037)">
            <path d="M66.01,386.379L977.572,386.379" style="fill:none;stroke:black;stroke-width:3px;"/>
        </g>
        <g transform="matrix(1,0,0,1,4.94567,-129.465)">
            <path d="M72.89,454.871L72.89,62.931" style="fill:none;stroke:black;stroke-width:1px;stroke-linecap:round;stroke-linejoin:round;stroke-miterlimit:1.5;"/>
        </g>
        <g transform="matrix(1.37844,0,0,1.37844,156.689,-301.608)">
            <path d="M72.89,454.871L72.89,254.768" style="fill:none;stroke:black;stroke-width:0.73px;stroke-linecap:round;stroke-linejoin:round;stroke-miterlimit:1.5;"/>
        </g>
        <g transform="matrix(1,0,0,1,192.921,-129.465)">
            <path d="M72.89,454.871L72.89,179.037" style="fill:none;stroke:black;stroke-width:1px;stroke-linecap:round;stroke-linejoin:round;stroke-miterlimit:1.5;"/>
        </g>
        <g transform="matrix(1,0,0,1,316.231,-129.465)">
            <path d="M72.89,454.871L72.89,178.833" style="fill:none;stroke:black;stroke-width:1px;stroke-linecap:round;stroke-linejoin:round;stroke-miterlimit:1.5;"/>
        </g>
        <g transform="matrix(1,0,0,1,324.878,-129.465)">
            <path d="M72.89,454.871L72.89,179.129" style="fill:none;stroke:black;stroke-width:1px;stroke-linecap:round;stroke-linejoin:round;stroke-miterlimit:1.5;"/>
        </g>
        <g transform="matrix(1,0,0,1,342.261,-129.465)">
            <path d="M72.89,454.871L72.89,179.078" style="fill:none;stroke:black;stroke-width:1px;stroke-linecap:round;stroke-linejoin:round;stroke-miterlimit:1.5;"/>
        </g>
        <g transform="matrix(1,0,0,1,414.959,-129.465)">
            <path d="M72.89,454.871L72.89,178.985" style="fill:none;stroke:black;stroke-width:1px;stroke-linecap:round;stroke-linejoin:round;stroke-miterlimit:1.5;"/>
        </g>
        <g transform="matrix(1,0,0,1,431.771,-129.465)">
            <path d="M72.89,454.871L72.89,179.003" style="fill:none;stroke:black;stroke-width:1px;stroke-linecap:round;stroke-linejoin:round;stroke-miterlimit:1.5;"/>
        </g>
        <g transform="matrix(1,0,0,1,440.419,-129.465)">
            <path d="M72.89,454.871L72.89,179.022" style="fill:none;stroke:black;stroke-width:1px;stroke-linecap:round;stroke-linejoin:round;stroke-miterlimit:1.5;"/>
        </g>
        <g transform="matrix(1,0,0,1,630.161,-129.465)">
            <path d="M72.89,454.871L72.89,178.798" style="fill:none;stroke:black;stroke-width:1px;stroke-linecap:round;stroke-linejoin:round;stroke-miterlimit:1.5;"/>
        </g>
        <g transform="matrix(1,0,0,1,638.808,-129.465)">
            <path d="M72.89,454.871L72.89,178.979" style="fill:none;stroke:black;stroke-width:1px;stroke-linecap:round;stroke-linejoin:round;stroke-miterlimit:1.5;"/>
        </g>
        <g transform="matrix(1,0,0,1,733.552,-129.465)">
            <path d="M72.89,454.871L72.89,179.002" style="fill:none;stroke:black;stroke-width:1px;stroke-linecap:round;stroke-linejoin:round;stroke-miterlimit:1.5;"/>
        </g>
        <g transform="matrix(1,0,0,1,742.2,-129.465)">
            <path d="M72.89,454.871L72.89,179.104" style="fill:none;stroke:black;stroke-width:1px;stroke-linecap:round;stroke-linejoin:round;stroke-miterlimit:1.5;"/>
        </g>
        <g transform="matrix(1,0,0,1,889.4,-129.465)">
            <path d="M72.89,454.871L72.89,70.24" style="fill:none;stroke:black;stroke-width:1px;stroke-linecap:round;stroke-linejoin:round;stroke-miterlimit:1.5;"/>
        </g>
    </g>
    <g id="zeile-oben" serif:id="zeile oben">
        <g transform="matrix(1,0,0,1,342.261,-129.465)">
            <path d="M72.89,454.871L72.89,176.33" style="fill:none;stroke:black;stroke-width:1px;stroke-linecap:round;stroke-linejoin:round;stroke-miterlimit:1.5;"/>
        </g>
        <g transform="matrix(1,0,0,1,414.959,-129.465)">
            <path d="M72.89,454.871L72.89,176.33" style="fill:none;stroke:black;stroke-width:1px;stroke-linecap:round;stroke-linejoin:round;stroke-miterlimit:1.5;"/>
        </g>
        <g transform="matrix(0.44565,0,0,0.44565,3.27215,-27.6832)">
            <g transform="matrix(602.817,0,0,602.817,167.497,632.7)">
                <path d="M-0.001,-0L0.273,-0.716L0.375,-0.716L0.668,-0L0.561,-0L0.477,-0.217L0.178,-0.217L0.099,-0L-0.001,-0ZM0.205,-0.294L0.448,-0.294L0.373,-0.492C0.35,-0.552 0.333,-0.602 0.322,-0.641C0.313,-0.595 0.3,-0.549 0.284,-0.504L0.205,-0.294Z" style="fill:rgb(96,148,161);fill-opacity:0.58;fill-rule:nonzero;"/>
            </g>
            <g transform="matrix(602.817,0,0,602.817,569.572,632.7)">
                <path d="M0.05,0.043L0.135,0.056C0.139,0.082 0.149,0.101 0.165,0.113C0.187,0.13 0.217,0.138 0.254,0.138C0.295,0.138 0.326,0.13 0.349,0.113C0.371,0.097 0.386,0.074 0.394,0.045C0.398,0.027 0.4,-0.011 0.4,-0.068C0.361,-0.023 0.314,-0 0.256,-0C0.185,-0 0.13,-0.026 0.091,-0.077C0.052,-0.129 0.032,-0.19 0.032,-0.262C0.032,-0.312 0.041,-0.357 0.059,-0.399C0.077,-0.441 0.103,-0.473 0.137,-0.496C0.171,-0.519 0.211,-0.53 0.257,-0.53C0.318,-0.53 0.368,-0.506 0.408,-0.456L0.408,-0.519L0.489,-0.519L0.489,-0.07C0.489,0.01 0.481,0.068 0.465,0.101C0.448,0.135 0.422,0.162 0.386,0.181C0.351,0.201 0.307,0.21 0.255,0.21C0.193,0.21 0.143,0.197 0.105,0.169C0.067,0.141 0.049,0.099 0.05,0.043ZM0.123,-0.269C0.123,-0.201 0.136,-0.151 0.163,-0.12C0.19,-0.088 0.224,-0.073 0.265,-0.073C0.305,-0.073 0.339,-0.088 0.366,-0.119C0.394,-0.15 0.407,-0.199 0.407,-0.266C0.407,-0.329 0.393,-0.377 0.365,-0.409C0.337,-0.441 0.303,-0.458 0.263,-0.458C0.224,-0.458 0.191,-0.442 0.164,-0.41C0.136,-0.378 0.123,-0.331 0.123,-0.269Z" style="fill:rgb(96,148,161);fill-opacity:0.58;fill-rule:nonzero;"/>
            </g>
            <g transform="matrix(602.817,0,0,602.817,904.83,632.7)">
                <rect x="0.032" y="-0.303" width="0.27" height="0.088" style="fill:rgb(96,148,161);fill-opacity:0.58;fill-rule:nonzero;stroke:rgb(255,0,97);stroke-width:0.01px;stroke-linecap:butt;stroke-linejoin:round;stroke-miterlimit:2;"/>
            </g>
            <g transform="matrix(602.817,0,0,602.817,1105.57,632.7)">
                <path d="M0.066,-0L0.066,-0.519L0.145,-0.519L0.145,-0.446C0.161,-0.471 0.182,-0.492 0.209,-0.507C0.236,-0.523 0.267,-0.53 0.302,-0.53C0.34,-0.53 0.372,-0.522 0.396,-0.506C0.421,-0.49 0.438,-0.468 0.448,-0.439C0.489,-0.5 0.543,-0.53 0.608,-0.53C0.66,-0.53 0.699,-0.516 0.727,-0.488C0.755,-0.459 0.769,-0.415 0.769,-0.356L0.769,-0L0.681,-0L0.681,-0.327C0.681,-0.362 0.678,-0.387 0.673,-0.403C0.667,-0.418 0.657,-0.431 0.642,-0.44C0.627,-0.449 0.609,-0.454 0.589,-0.454C0.552,-0.454 0.522,-0.442 0.498,-0.418C0.474,-0.393 0.462,-0.355 0.462,-0.301L0.462,-0L0.374,-0L0.374,-0.337C0.374,-0.376 0.367,-0.405 0.353,-0.425C0.338,-0.444 0.315,-0.454 0.282,-0.454C0.257,-0.454 0.235,-0.448 0.214,-0.435C0.193,-0.422 0.177,-0.403 0.168,-0.377C0.159,-0.352 0.154,-0.316 0.154,-0.269L0.154,-0L0.066,-0Z" style="fill:rgb(96,148,161);fill-opacity:0.58;fill-rule:nonzero;"/>
            </g>
            <g transform="matrix(602.817,0,0,602.817,1775.21,632.7)">
                <path d="M0.077,-0L0.077,-0.716L0.347,-0.716C0.395,-0.716 0.431,-0.714 0.456,-0.709C0.491,-0.703 0.521,-0.692 0.544,-0.676C0.568,-0.659 0.587,-0.636 0.602,-0.606C0.616,-0.577 0.624,-0.544 0.624,-0.509C0.624,-0.448 0.604,-0.396 0.565,-0.354C0.527,-0.312 0.457,-0.291 0.355,-0.291L0.172,-0.291L0.172,-0L0.077,-0ZM0.172,-0.375L0.357,-0.375C0.418,-0.375 0.462,-0.387 0.487,-0.41C0.513,-0.432 0.526,-0.465 0.526,-0.506C0.526,-0.536 0.518,-0.561 0.503,-0.583C0.488,-0.604 0.468,-0.618 0.443,-0.625C0.427,-0.629 0.398,-0.631 0.355,-0.631L0.172,-0.631L0.172,-0.375Z" style="fill:rgb(96,148,161);fill-opacity:0.58;fill-rule:nonzero;"/>
            </g>
        </g>
        <g transform="matrix(1,0,0,1,2.19715,-132.022)">
            <path d="M66.01,386.379L977.572,386.379" style="fill:none;stroke:black;stroke-width:6.5px;stroke-linejoin:round;stroke-miterlimit:1.5;"/>
        </g>
        <g transform="matrix(1,0,0,1,2.19715,-324.355)">
            <path d="M66.01,386.379L977.572,386.379" style="fill:none;stroke:black;stroke-width:3px;stroke-linejoin:round;stroke-miterlimit:1.5;"/>
        </g>
        <g transform="matrix(1,0,0,1,2.19715,-75.3037)">
            <path d="M66.01,386.379L977.572,386.379" style="fill:none;stroke:black;stroke-width:3px;stroke-linejoin:round;stroke-miterlimit:1.5;"/>
        </g>
        <g transform="matrix(1,0,0,1,4.94567,-129.465)">
            <path d="M72.89,454.871L72.89,176.33" style="fill:none;stroke:black;stroke-width:1px;stroke-linecap:round;stroke-linejoin:round;stroke-miterlimit:1.5;"/>
        </g>
        <g transform="matrix(1,0,0,1,184.274,-129.465)">
            <path d="M72.89,454.871L72.89,176.33" style="fill:none;stroke:black;stroke-width:1px;stroke-linecap:round;stroke-linejoin:round;stroke-miterlimit:1.5;"/>
        </g>
        <g transform="matrix(1,0,0,1,192.921,-129.465)">
            <path d="M72.89,454.871L72.89,176.33" style="fill:none;stroke:black;stroke-width:1px;stroke-linecap:round;stroke-linejoin:round;stroke-miterlimit:1.5;"/>
        </g>
        <g transform="matrix(1,0,0,1,316.231,-129.465)">
            <path d="M72.89,454.871L72.89,176.33" style="fill:none;stroke:black;stroke-width:1px;stroke-linecap:round;stroke-linejoin:round;stroke-miterlimit:1.5;"/>
        </g>
        <g transform="matrix(1,0,0,1,324.878,-129.465)">
            <path d="M72.89,454.871L72.89,176.33" style="fill:none;stroke:black;stroke-width:1px;stroke-linecap:round;stroke-linejoin:round;stroke-miterlimit:1.5;"/>
        </g>
        <g transform="matrix(1,0,0,1,431.771,-129.465)">
            <path d="M72.89,454.871L72.89,176.33" style="fill:none;stroke:black;stroke-width:1px;stroke-linecap:round;stroke-linejoin:round;stroke-miterlimit:1.5;"/>
        </g>
        <g transform="matrix(1,0,0,1,440.419,-129.465)">
            <path d="M72.89,454.871L72.89,176.33" style="fill:none;stroke:black;stroke-width:1px;stroke-linecap:round;stroke-linejoin:round;stroke-miterlimit:1.5;"/>
        </g>
        <g transform="matrix(1,0,0,1,630.161,-129.465)">
            <path d="M72.89,454.871L72.89,176.33" style="fill:none;stroke:black;stroke-width:1px;stroke-linecap:round;stroke-linejoin:round;stroke-miterlimit:1.5;"/>
        </g>
        <g transform="matrix(1,0,0,1,638.808,-129.465)">
            <path d="M72.89,454.871L72.89,176.33" style="fill:none;stroke:black;stroke-width:1px;stroke-linecap:round;stroke-linejoin:round;stroke-miterlimit:1.5;"/>
        </g>
        <g transform="matrix(1,0,0,1,733.552,-129.465)">
            <path d="M72.89,454.871L72.89,176.33" style="fill:none;stroke:black;stroke-width:1px;stroke-linecap:round;stroke-linejoin:round;stroke-miterlimit:1.5;"/>
        </g>
        <g transform="matrix(1,0,0,1,742.2,-129.465)">
            <path d="M72.89,454.871L72.89,176.33" style="fill:none;stroke:black;stroke-width:1px;stroke-linecap:round;stroke-linejoin:round;stroke-miterlimit:1.5;"/>
        </g>
        <g transform="matrix(1,0,0,1,889.4,-129.465)">
            <path d="M72.89,454.871L72.89,176.33" style="fill:none;stroke:black;stroke-width:1px;stroke-linecap:round;stroke-linejoin:round;stroke-miterlimit:1.5;"/>
        </g>
    </g>
    <g transform="matrix(1,0,0,1,59.0793,0)">
        <g transform="matrix(1,-0,-0,1,-59.0793,0)">
            <path d="M174.663,311.11L186.663,311.11" style="fill:none;stroke:rgb(255,0,97);stroke-width:3px;stroke-linecap:butt;stroke-miterlimit:10;"/>
            <path d="M173.919,266.482L180.663,252.995L187.407,266.482L173.919,266.482Z" style="fill:rgb(255,0,97);"/>
            <path d="M180.663,311.11L180.663,263.785" style="fill:none;stroke:rgb(255,0,97);stroke-width:3px;"/>
        </g>
    </g>
    <g transform="matrix(1,0,0,1,636.838,270.691)">
        <g transform="matrix(1,-0,-0,1,-636.838,-270.691)">
            <path d="M752.422,637.735L764.422,637.735" style="fill:none;stroke:rgb(255,0,97);stroke-width:3px;stroke-linecap:butt;stroke-miterlimit:10;"/>
            <path d="M749.422,270.965L758.422,252.965L767.422,270.965L749.422,270.965Z" style="fill:rgb(255,0,97);"/>
            <path d="M758.422,637.735L758.422,267.365" style="fill:none;stroke:rgb(255,0,97);stroke-width:3px;"/>
        </g>
    </g>
    <g transform="matrix(1,0,0,1.0049,328.985,-58.368)">
        <g transform="matrix(1,-0,-0,0.995122,-328.985,58.0833)">
            <path d="M444.568,254.274L456.568,254.274" style="fill:none;stroke:rgb(255,0,97);stroke-width:3px;stroke-linecap:butt;stroke-miterlimit:10;"/>
            <path d="M443.824,184.312C443.824,180.59 446.846,177.568 450.568,177.568C454.29,177.568 457.312,180.59 457.312,184.312C457.312,188.034 454.29,191.056 450.568,191.056C446.846,191.056 443.824,188.034 443.824,184.312Z" style="fill:rgb(255,0,97);"/>
            <path d="M450.568,254.274L450.568,188.358" style="fill:none;stroke:rgb(255,0,97);stroke-width:3px;"/>
        </g>
    </g>
    <g transform="matrix(1,0,0,1.0049,328.985,-58.368)">
        <g transform="matrix(1,-0,-0,0.995122,-328.985,58.0833)">
            <path d="M456.568,62.028L444.568,62.028" style="fill:none;stroke:rgb(255,0,97);stroke-width:3px;stroke-linecap:butt;stroke-miterlimit:10;"/>
            <path d="M450.568,62.028L450.568,177.638" style="fill:none;stroke:rgb(255,0,97);stroke-width:3px;stroke-dasharray:0,6,0,0;stroke-dashoffset:3;"/>
        </g>
    </g>
    <g transform="matrix(7.25226e-17,0.623976,-0.623976,7.25226e-17,450.678,-13.8707)">
        <g transform="matrix(1.86267e-16,-1.60263,1.60263,1.86267e-16,22.2296,722.268)">
            <path d="M257.136,55.999L257.098,67.999" style="fill:none;stroke:rgb(255,0,97);stroke-width:3px;stroke-linecap:butt;stroke-miterlimit:10;"/>
            <path d="M265.762,56.027L265.724,68.026" style="fill:none;stroke:rgb(255,0,97);stroke-width:3px;stroke-linecap:butt;stroke-miterlimit:10;"/>
            <path d="M257.117,61.999C259.347,62.006 263.513,62.019 265.743,62.027" style="fill:none;stroke:rgb(255,0,97);stroke-width:3px;"/>
        </g>
    </g>
    <g transform="matrix(7.25226e-17,0.623976,-0.623976,7.25226e-17,591.364,-13.8707)">
        <g transform="matrix(1.86267e-16,-1.60263,1.60263,1.86267e-16,22.2296,947.735)">
            <path d="M397.822,55.999L397.784,67.999" style="fill:none;stroke:rgb(255,0,97);stroke-width:3px;stroke-linecap:butt;stroke-miterlimit:10;"/>
            <path d="M415.182,56.054L415.144,68.054" style="fill:none;stroke:rgb(255,0,97);stroke-width:3px;stroke-linecap:butt;stroke-miterlimit:10;"/>
            <path d="M397.803,61.999C401.57,62.011 411.396,62.042 415.163,62.054" style="fill:none;stroke:rgb(255,0,97);stroke-width:3px;"/>
        </g>
    </g>
    <g transform="matrix(7.25226e-17,0.623976,-0.623976,7.25226e-17,681.241,-13.8707)">
        <g transform="matrix(1.86267e-16,-1.60263,1.60263,1.86267e-16,22.2296,1091.77)">
            <path d="M487.699,55.999L487.661,67.999" style="fill:none;stroke:rgb(255,0,97);stroke-width:3px;stroke-linecap:butt;stroke-miterlimit:10;"/>
            <path d="M505.06,56.054L505.022,68.054" style="fill:none;stroke:rgb(255,0,97);stroke-width:3px;stroke-linecap:butt;stroke-miterlimit:10;"/>
            <path d="M487.68,61.999C491.447,62.011 501.274,62.042 505.041,62.054" style="fill:none;stroke:rgb(255,0,97);stroke-width:3px;"/>
        </g>
    </g>
    <g transform="matrix(1,0,0,1,-0.363882,-0.756606)">
        <path d="M121.935,60.297L122.186,32.293" style="fill:none;stroke:black;stroke-width:1px;stroke-linecap:round;stroke-dasharray:0,2,0,0;"/>
    </g>
    <g transform="matrix(1,0,0,1,139.51,-1.60432)">
        <path d="M121.935,60.297L122.186,37.048" style="fill:none;stroke:black;stroke-width:1px;stroke-linecap:round;stroke-dasharray:0,2,0,0;"/>
    </g>
    <g transform="matrix(1,0,0,1,58.4742,281.48)">
        <path d="M121.935,60.297L122.186,32.293" style="fill:none;stroke:black;stroke-width:1px;stroke-linecap:round;stroke-dasharray:0,2,0,0;"/>
    </g>
    <g transform="matrix(1,0,0,1,-0.0196754,-3.1415)">
        <text x="109.446px" y="32.901px" style="font-family:'GoMonoForPowerline', 'Go Mono for Powerline', monospace;font-size:14px;">fontHeight</text>
    </g>
    <g transform="matrix(1,0,0,1,133.409,-1.11134)">
        <text x="109.446px" y="32.901px" style="font-family:'GoMonoForPowerline', 'Go Mono for Powerline', monospace;font-size:14px;">hSpacing</text>
    </g>
    <g transform="matrix(1,0,0,1,284.296,-0.98516)">
        <path d="M121.935,60.297L122.352,21.711" style="fill:none;stroke:black;stroke-width:1px;stroke-linecap:round;stroke-dasharray:0,2,0,0;"/>
    </g>
    <g transform="matrix(1,0,0,1,259.385,-14.3088)">
        <text x="109.446px" y="32.901px" style="font-family:'GoMonoForPowerline', 'Go Mono for Powerline', monospace;font-size:14px;">paddingLeft</text>
    </g>
    <g transform="matrix(1,0,0,1,374.3,-0.98516)">
        <path d="M121.935,60.297L122.186,37.048" style="fill:none;stroke:black;stroke-width:1px;stroke-linecap:round;stroke-dasharray:0,2,0,0;"/>
    </g>
    <g transform="matrix(1,0,0,1,349.075,2.41251)">
        <text x="109.446px" y="32.901px" style="font-family:'GoMonoForPowerline', 'Go Mono for Powerline', monospace;font-size:14px;">paddingRight</text>
    </g>
    <g transform="matrix(7.25226e-17,0.623976,-0.623976,7.25226e-17,945.275,89.5021)">
        <g transform="matrix(1.86267e-16,-1.60263,1.60263,1.86267e-16,-143.438,1514.92)">
            <path d="M712.049,159.246L712.011,171.246" style="fill:none;stroke:rgb(255,0,97);stroke-width:3px;stroke-linecap:butt;stroke-miterlimit:10;"/>
            <path d="M806.327,159.545L806.289,171.545" style="fill:none;stroke:rgb(255,0,97);stroke-width:3px;stroke-linecap:butt;stroke-miterlimit:10;"/>
            <path d="M712.03,165.246C723.333,165.282 795.005,165.509 806.308,165.545" style="fill:none;stroke:rgb(255,0,97);stroke-width:3px;"/>
        </g>
    </g>
    <g transform="matrix(1,0,0,1,638.334,-0.872085)">
        <path d="M121.935,164.709L122.186,37.048" style="fill:none;stroke:black;stroke-width:1px;stroke-linecap:round;stroke-dasharray:0,2,0,0;"/>
    </g>
    <g transform="matrix(1,0,0,1,598.144,-0.197417)">
        <text x="109.446px" y="32.901px" style="font-family:'GoMonoForPowerline', 'Go Mono for Powerline', monospace;font-size:14px;">whitespaceWidth</text>
    </g>
    <g transform="matrix(1,0,0,1,24.5575,322.482)">
        <text x="109.446px" y="32.901px" style="font-family:'GoMonoForPowerline', 'Go Mono for Powerline', monospace;font-size:14px;">baselineOffset</text>
    </g>
    <path d="M115.583,311.064L127.583,311.064" style="fill:none;stroke:rgb(255,0,97);stroke-width:3px;stroke-linecap:butt;stroke-miterlimit:10;"/>
    <path d="M114.84,74.074L121.583,60.587L128.327,74.074L114.84,74.074Z" style="fill:rgb(255,0,97);"/>
    <path d="M121.583,311.064L121.583,71.377" style="fill:none;stroke:rgb(255,0,97);stroke-width:3px;"/>
    <g>
        <g transform="matrix(1,0,0,1,327.739,295.786)">
            <path d="M121.935,60.297L122.832,-39.692" style="fill:none;stroke:black;stroke-width:1px;stroke-linecap:round;stroke-dasharray:0,2,0,0;"/>
        </g>
        <g transform="matrix(1,0,0,1,277.699,337.008)">
            <text x="109.446px" y="32.901px" style="font-family:'GoMonoForPowerline', 'Go Mono for Powerline', monospace;font-size:14px;">verticalAlign</text>
        </g>
    </g>
    <g transform="matrix(0.827115,0,0,1,501.69,0)">
        <g transform="matrix(1.20902,0,0,1,-210.31,295.786)">
            <path d="M434.071,69.539L495.515,69.672" style="fill:none;stroke:black;stroke-width:1px;stroke-linecap:round;stroke-dasharray:0,2,0,0;"/>
        </g>
        <g transform="matrix(1.20902,0,0,1,254.823,337.008)">
            <text x="109.446px" y="32.901px" style="font-family:'GoMonoForPowerline', 'Go Mono for Powerline', monospace;font-size:14px;">lineHeight</text>
        </g>
    </g>
</svg>
